<?xml version="1.0" encoding="utf-8"?>
<!-- Generator: Adobe Illustrator 23.0.3, SVG Export Plug-In . SVG Version: 6.00 Build 0)  -->
<svg version="1.1" id="Layer_1" xmlns="http://www.w3.org/2000/svg" xmlns:xlink="http://www.w3.org/1999/xlink" x="0px" y="0px"
	 viewBox="0 0 256 255" style="enable-background:new 0 0 256 255;" xml:space="preserve">
<style type="text/css">
	.st0{fill:url(#SVGID_1_);}
	.st1{fill:url(#SVGID_2_);}
</style>
<g>
	
		<linearGradient id="SVGID_1_" gradientUnits="userSpaceOnUse" x1="-175.939" y1="522.4644" x2="-175.2722" y2="521.8028" gradientTransform="matrix(189.3834 0 0 -189.8058 33344.0117 99190.2891)">
		<stop  offset="0" style="stop-color:#387EB8"/>
		<stop  offset="1" style="stop-color:#366994"/>
	</linearGradient>
	<path class="st0" d="M126.92,0.07c-64.83,0-60.78,28.12-60.78,28.12l0.07,29.13h61.87v8.75H41.63c0,0-41.49-4.7-41.49,60.71
		c0,65.42,36.21,63.1,36.21,63.1h21.61v-30.36c0,0-1.16-36.21,35.63-36.21h61.36c0,0,34.48,0.56,34.48-33.32V33.97
		C189.43,33.97,194.67,0.07,126.92,0.07L126.92,0.07L126.92,0.07z M92.8,19.66c6.16,0,11.13,4.98,11.13,11.13
		S98.96,41.92,92.8,41.92c-6.16,0-11.13-4.98-11.13-11.13C81.67,24.63,86.65,19.66,92.8,19.66L92.8,19.66L92.8,19.66z"/>
	
		<linearGradient id="SVGID_2_" gradientUnits="userSpaceOnUse" x1="-175.8773" y1="522.3788" x2="-175.1612" y2="521.7004" gradientTransform="matrix(189.3834 0 0 -189.8058 33410.0117 99254.5625)">
		<stop  offset="0" style="stop-color:#FFE052"/>
		<stop  offset="1" style="stop-color:#FFC331"/>
	</linearGradient>
	<path class="st1" d="M128.76,254.13c64.83,0,60.78-28.12,60.78-28.12l-0.07-29.13H127.6v-8.75h86.44c0,0,41.49,4.7,41.49-60.71
		c0-65.42-36.21-63.1-36.21-63.1h-21.61v30.36c0,0,1.16,36.21-35.63,36.21h-61.36c0,0-34.48-0.56-34.48,33.32v56.01
		C66.24,220.23,61,254.13,128.76,254.13L128.76,254.13L128.76,254.13z M162.87,234.54c-6.16,0-11.13-4.98-11.13-11.13
		c0-6.16,4.98-11.13,11.13-11.13c6.16,0,11.13,4.98,11.13,11.13C174,229.56,169.03,234.54,162.87,234.54L162.87,234.54
		L162.87,234.54z"/>
</g>
</svg>
