<?xml version="1.0" standalone="no"?>
<!DOCTYPE svg PUBLIC "-//W3C//DTD SVG 1.1//EN" "http://www.w3.org/Graphics/SVG/1.1/DTD/svg11.dtd" >
<svg xmlns="http://www.w3.org/2000/svg">
<metadata>Generated by IcoMoon</metadata>
<defs>
<font id="icomoon" horiz-adv-x="1024">
<font-face units-per-em="1024" ascent="960" descent="-64" />
<missing-glyph horiz-adv-x="1024" />
<glyph unicode="&#x20;" horiz-adv-x="512" d="" />
<glyph unicode="&#xe900;" horiz-adv-x="949" d="M4.339 448v512h948.907v-1024h-948.907z" />
<glyph unicode="&#xe901;" horiz-adv-x="949" d="M176.712-50.264c-20.651 3.466-39.429 6.402-41.729 6.523-4.395 0.232-103.338 148.177-103.338 154.516 0 2.017 32.059 63.742 71.243 137.166s126.144 237.178 193.246 363.898c181.101 342.006 179.518 339.074 185.482 343.435 12.038 8.803-4.69 38.665 320.486-572.128 154.931-291.015 145.934-273.106 141.092-280.859-9.54-15.276-124.692-143.26-131.344-145.979-18.981-7.761-155.56-17.349-155.569-10.921-0.003 3.193-19.326 112.216-24.197 136.533l-3.59 17.92-328.903-0.061-37.675-155.248-23.829-0.55c-13.106-0.3-40.725 2.289-61.376 5.755z" />
<glyph unicode="&#xe902;" horiz-adv-x="949" d="M180.126-48.552c-26.283 4.356-47.939 8.038-48.125 8.183-5.039 3.91-96.942 147.248-96.942 151.198 0 3.141 16.264 36.13 36.141 73.308s119.175 224.269 220.661 415.757c101.486 191.488 187.079 350.902 190.207 354.254 5.459 5.85 5.902 5.85 11.048 0 2.948-3.352 55.599-100.558 117.002-216.014s120.543-226.048 131.422-245.76c49.026-88.831 201.464-378.943 201.464-383.416 0-4.315-114.005-137.448-126.776-148.048-4.76-3.951-115.884-18.082-142.19-18.082-11.952 0-14.483 1.22-15.927 7.68-0.944 4.224-7.269 39.168-14.054 77.653s-13.045 71.125-13.91 72.533c-0.865 1.408-75.242 2.56-165.284 2.56h-163.712l-3.36-7.68c-1.848-4.224-10.287-36.864-18.753-72.533s-16.872-68.309-18.681-72.533c-4.219-9.857-15.908-9.72-80.234 0.942z" />
<glyph unicode="&#xe903;" horiz-adv-x="949" d="M186.224-48.589c-26.683 4.359-50.18 8.954-52.215 10.212-5.284 3.266-98.95 144.136-98.95 148.818 0 3.495 65.577 129.584 71.709 137.88 1.388 1.877 85.883 160.853 187.768 353.28s186.942 350.994 189.017 352.371c2.075 1.377 5.211 2.050 6.97 1.494 2.958-0.935 74.082-133.293 345.957-643.807 57.431-107.841 104.51-198.647 104.62-201.79 0.236-6.749-122.825-149.111-130.843-151.364-17.236-4.842-144.303-16.471-147.294-13.48-2.614 2.614-30.311 143.894-30.524 155.701-0.027 1.426-75.519 2.194-167.762 1.707l-167.716-0.885-38.488-157.013-11.867-0.524c-6.527-0.288-33.699 3.042-60.382 7.401z" />
<glyph unicode="&#xe904;" horiz-adv-x="949" d="M194.377-48.575c-25.954 4.321-50.916 8.792-55.471 9.936-6.088 1.528-20.941 21.035-56.065 73.633-26.28 39.355-47.782 73.314-47.782 75.466 0 4.242 58.624 115.829 76.91 146.394 9.642 16.116 259.427 486.234 332.793 626.347 13.762 26.283 28.729 53.744 33.259 61.025 7.994 12.849 8.413 13.050 14.218 6.827 3.29-3.527 58.476-105.185 122.636-225.907s120.273-225.17 124.696-232.107c8.064-12.649 192.453-359.668 200.123-376.633 3.943-8.721 1.876-11.529-59.576-80.944-35.014-39.55-65.213-72.869-67.11-74.041s-35.224-5.804-74.060-10.294c-55.824-6.453-71.47-7.283-74.713-3.965-2.256 2.309-9.647 35.686-16.424 74.171s-13.127 72.676-14.111 75.979c-1.681 5.642-11.956 5.952-169.656 5.12l-167.866-0.885-18.773-75.121c-10.325-41.316-20.016-77.028-21.535-79.36-3.427-5.261-3.927-5.226-61.494 4.359z" />
<glyph unicode="&#xe905;" horiz-adv-x="949" d="M194.377-48.575c-25.954 4.321-50.659 8.728-54.9 9.792-5.374 1.349-22.498 24.164-56.491 75.266l-48.78 73.331 33.298 62.426c69.881 131.012 349.891 658.681 375.462 707.546 14.736 28.16 30.505 57.157 35.043 64.439 8.009 12.852 8.425 13.052 14.246 6.827 3.298-3.527 47.145-83.98 97.439-178.785s108.006-203.093 128.249-240.64c106.721-197.943 221.65-417.044 221.65-422.557 0-5.387-116.69-141.534-126.507-147.601-1.939-1.198-35.3-5.852-74.137-10.341-55.824-6.453-71.47-7.283-74.713-3.965-2.256 2.309-9.647 35.686-16.424 74.171s-13.127 72.676-14.111 75.979c-1.681 5.642-11.956 5.952-169.656 5.12l-167.866-0.885-18.773-75.121c-10.325-41.316-20.016-77.028-21.535-79.36-3.427-5.261-3.927-5.226-61.494 4.359z" />
<glyph unicode="&#xe906;" horiz-adv-x="949" d="M193.843-48.407c-26.247 4.376-50.952 8.767-54.9 9.758-4.687 1.176-24.104 27.246-55.958 75.132l-48.78 73.331 32.364 60.72c17.8 33.396 64.268 120.624 103.261 193.84s85.115 159.232 102.492 191.147c17.377 31.915 71.843 134.059 121.034 226.987s90.687 170.265 92.214 171.86c3.541 3.699 5.442 0.329 94.050-166.74 80.992-152.709 129.85-243.424 155.342-288.427 35.905-63.385 204.629-384.17 204.626-389.042-0.003-5.342-114.712-138.582-125.434-145.697-3.287-2.181-35.16-7.241-70.829-11.243s-66.529-7.836-68.576-8.518c-10.909-3.636-14.725 10.787-35.401 133.807l-4.159 24.747h-340.453l-3.376-12.8c-1.857-7.040-9.816-41.216-17.687-75.947s-15.815-65.067-17.654-67.413c-4.1-5.233-3.562-5.272-62.176 4.5z" />
<glyph unicode="&#xe907;" horiz-adv-x="949" d="M185.246-45.641c-25.344 4.080-48.071 8.664-50.503 10.188-6.751 4.227-93.91 135.965-95.533 144.395-0.925 4.805 11.398 31.11 35.177 75.093 30.538 56.483 265.046 496.794 378.472 710.614 17.283 32.58 32.842 59.267 34.576 59.304 3.645 0.079 10.231-11.965 132.96-243.127 50.334-94.805 101.075-189.269 112.757-209.92 46.538-82.266 206.852-387.822 205.827-392.303-1.355-5.927-121.986-144.459-127.702-146.652-8.847-3.395-144.516-17.084-146.789-14.811-1.324 1.324-8.314 35.839-15.533 76.7s-13.851 76.213-14.737 78.56c-1.259 3.333-38.194 4.267-168.851 4.267-155.83 0-167.45-0.408-170.314-5.973-1.691-3.285-11.085-39.381-20.876-80.213l-17.802-74.24-12.524 0.351c-6.888 0.193-33.26 3.689-58.604 7.769z" />
<glyph unicode="&#xe908;" horiz-adv-x="949" d="M183.539-45.138c-26.283 4.356-48.153 8.038-48.6 8.183-2.888 0.931-96.464 144.352-96.452 147.83 0.008 2.379 18.159 38.118 40.335 79.419 39.112 72.841 233.756 439.349 348.577 656.356 31.083 58.745 58.016 106.936 59.852 107.091 3.75 0.316 10.857-12.593 117.763-213.9 41.873-78.848 97.196-182.528 122.941-230.4 111.601-207.52 209.516-394.004 209.716-399.414 0.216-5.872-118.617-145.091-126.393-148.075-8.847-3.395-144.516-17.084-146.789-14.811-1.324 1.324-8.314 35.839-15.533 76.7s-13.851 76.213-14.737 78.56c-1.259 3.333-38.194 4.267-168.851 4.267-155.83 0-167.45-0.408-170.314-5.973-1.691-3.285-11.085-39.381-20.876-80.213l-17.802-74.24-12.524 0.351c-6.888 0.193-34.028 3.915-60.311 8.271z" />
<glyph unicode="&#xe909;" horiz-adv-x="949" d="M202.312-47.174c-19.712 3.35-43.186 7.18-52.165 8.512l-16.325 2.421-47.675 71.395c-26.222 39.267-47.675 73.197-47.675 75.401 0 4.377 25.265 52.845 71.813 137.766 28.455 51.912 273.579 512.19 341.292 640.853 17.537 33.323 33.537 60.587 35.556 60.587 4.914 0 2.255 4.708 76.163-134.827 59.54-112.407 142.219-266.076 189.159-351.573 27.617-50.302 183.063-343.852 185.402-350.12 1.367-3.663-18.078-28.28-61.072-77.319-57.405-65.475-64.247-72.129-76.082-73.987-43.066-6.761-132.324-15.5-134.642-13.182-1.512 1.512-8.43 35.741-15.374 76.065s-14.088 75.236-15.878 77.582c-2.525 3.312-40.953 4.267-171.7 4.267h-168.447l-4.946-17.92c-2.72-9.856-11.595-45.568-19.722-79.36-17.207-71.546-10.836-66.222-67.683-56.561z" />
<glyph unicode="&#xe90a;" horiz-adv-x="949" d="M202.312-47.174c-19.712 3.35-42.948 7.144-51.636 8.432l-15.796 2.342-48.204 72.466c-26.512 39.856-48.204 73.687-48.204 75.179 0 2.598 29.010 57.602 78.598 149.022 26.44 48.745 286.39 537.478 334.507 628.907 17.537 33.323 33.575 60.587 35.641 60.587 4.82 0 3.65 2.074 77.002-136.533 34.276-64.768 88.43-166.144 120.343-225.28 77.1-142.869 94.497-175.372 181.455-338.997 64.341-121.070 73.45-140.069 69.54-145.057-2.474-3.157-30.935-35.935-63.246-72.84-53.183-60.745-59.972-67.293-71.68-69.13-43.043-6.755-132.255-15.485-134.57-13.17-1.512 1.512-8.43 35.741-15.374 76.065s-14.088 75.236-15.878 77.582c-2.525 3.312-40.953 4.267-171.7 4.267h-168.447l-4.946-17.92c-2.72-9.856-11.595-45.568-19.722-79.36-17.207-71.546-10.836-66.222-67.683-56.561z" />
<glyph unicode="&#xe90b;" horiz-adv-x="949" d="M222.792-49.913c-15.002 2.319-30.594 4.947-47.787 8.052-4.693 0.848-15.445 2.47-23.893 3.606s-16.32 3.103-17.493 4.373c-4.308 4.664-92.18 137.74-93.884 142.182-0.969 2.525 16.256 38.135 38.279 79.133s63.065 117.549 91.207 170.114c28.141 52.565 57.467 107.33 65.169 121.7s66.995 126.101 131.763 248.293c64.768 122.191 119.381 222.179 121.362 222.194s55.612-97.893 119.18-217.573c63.568-119.68 118.209-221.44 121.426-226.133s39.242-71.509 80.056-148.48c40.814-76.971 87.19-164.17 103.057-193.776l28.85-53.829-8.773-10.426c-4.825-5.734-33.47-38.651-63.655-73.148-51.827-59.23-55.676-62.834-69.126-64.733-38.662-5.459-129.985-14.936-131.989-13.697-1.253 0.774-8.191 34.885-15.418 75.802s-14.597 76.328-16.379 78.692c-2.544 3.375-39.564 4.108-172.396 3.413l-169.156-0.885-14.606-58.027c-8.033-31.915-15.533-64.171-16.666-71.68s-4.231-17.016-6.883-21.126c-5.007-7.757-6.775-7.979-32.244-4.041z" />
<glyph unicode="&#xe90c;" horiz-adv-x="949" d="M192.072-44.593c-29.099 4.665-55.064 10.271-57.7 12.458-5.090 4.222-91.657 132.668-94.625 140.402-1.563 4.072 18.044 42.022 91.756 177.6 30.674 56.419 135.736 254.005 253.623 476.979 54.332 102.765 100.407 186.861 102.388 186.88s55.673-97.885 119.314-217.565c63.642-119.68 122.021-228.352 129.733-241.493s24.532-43.861 37.379-68.267c12.847-24.405 55.459-104.722 94.695-178.482l71.337-134.109-8.717-10.359c-4.794-5.698-33.414-38.584-63.6-73.082-51.827-59.23-55.676-62.834-69.126-64.733-49.474-6.985-130.546-14.771-132.423-12.718-1.228 1.344-7.819 33.931-14.646 72.416s-13.175 73.444-14.107 77.685l-1.694 7.712-342.603-1.77-18.919-75.171c-18.396-73.091-21.884-83.92-26.801-83.207-1.297 0.188-26.167 4.159-55.265 8.825z" />
<glyph unicode="&#xe90d;" horiz-adv-x="949" d="M192.072-44.593c-29.099 4.665-55.064 10.271-57.7 12.458-5.090 4.222-91.657 132.668-94.625 140.402-0.962 2.508 14.706 35.045 34.817 72.306s52.644 97.699 72.295 134.307c19.65 36.608 51.917 96.512 71.703 133.12 45.723 84.595 179.122 334.953 227.797 427.52 20.484 38.955 39.009 70.827 41.168 70.827s15.921-22.656 30.584-50.347c108.032-204.022 193.745-363.544 213.205-396.8 12.633-21.589 32.247-56.917 43.587-78.507s53.071-100.28 92.736-174.868l72.119-135.614-60.976-69.186c-33.537-38.052-63.142-70.907-65.789-73.010-6.698-5.322-142.25-20.644-145.886-16.49-1.563 1.786-8.559 36.166-15.546 76.4s-13.481 74.41-14.431 75.947c-0.95 1.537-78.469 2.794-172.265 2.794h-170.538l-3.26-7.68c-4.090-9.634-14.435-51.251-25.755-103.606-8.046-37.213-12.692-49.677-18.19-48.798-1.178 0.188-25.95 4.159-55.049 8.825z" />
<glyph unicode="&#xe90e;" horiz-adv-x="949" d="M192.072-44.593c-29.099 4.665-55.111 10.271-57.805 12.458s-25.477 35.166-50.629 73.288l-45.73 69.313 59.669 111.594c32.818 61.377 77.656 145.386 99.64 186.687s47.305 88.149 56.268 104.107c14.644 26.070 106.060 197.973 196.494 369.493 18.559 35.2 35.483 64 37.608 64s15.86-22.656 30.522-50.347c97.097-183.38 189.736-356.237 208.083-388.267 11.829-20.651 48.76-89.003 82.068-151.893s75.716-142.842 94.239-177.669c18.524-34.827 33.679-65.241 33.679-67.585 0-3.953-112.38-134.039-123.165-142.57-6.731-5.324-142.273-20.642-145.907-16.49-1.563 1.786-8.559 36.166-15.546 76.4s-13.481 74.41-14.431 75.947c-0.95 1.537-78.469 2.794-172.265 2.794h-170.538l-3.26-7.68c-4.090-9.634-14.435-51.251-25.755-103.606-8.046-37.213-12.692-49.677-18.19-48.798-1.178 0.188-25.95 4.159-55.049 8.825z" />
<glyph unicode="&#xe90f;" horiz-adv-x="949" d="M183.539-41.725c-26.283 4.356-48.153 8.038-48.6 8.183s-22.422 32.62-48.831 72.169l-48.017 71.907 34.815 65.48c19.148 36.014 37.423 69.32 40.609 74.013s15.101 26.197 26.476 47.787c11.376 21.589 77.386 146.005 146.69 276.48s141.977 267.563 161.495 304.64c19.518 37.077 37.24 67.413 39.381 67.413s15.889-22.656 30.55-50.347c89.312-168.689 210.464-394.506 217.694-405.766 4.669-7.271 36.507-66.212 70.751-130.98s77.419-146.255 95.944-181.083c18.525-34.827 33.683-65.241 33.683-67.585 0-3.953-112.38-134.039-123.165-142.57-6.731-5.324-142.273-20.642-145.907-16.49-1.563 1.786-8.569 36.225-15.569 76.531s-14.359 75.25-16.354 77.653c-2.857 3.443-38.84 4.359-169.609 4.318-91.29-0.027-167.872-1.253-170.181-2.72s-11.962-34.852-21.449-74.188c-9.487-39.336-18.069-74.208-19.071-77.494-2.346-7.695-10.83-7.38-71.334 2.648z" />
<glyph unicode="&#xe910;" horiz-adv-x="949" d="M184.367-42.12c-25.827 4.139-48.291 8.973-49.92 10.743-8.358 9.082-92.555 138.539-92.516 142.247 0.043 4.087 24.263 50.572 87.621 168.17 29.655 55.043 264.793 497.759 320.432 603.307 18.555 35.2 35.476 64 37.602 64s15.86-22.656 30.522-50.347c60.699-114.639 189.15-355.143 221.953-415.573 62.077-114.358 196.117-367.994 196.117-371.1 0-3.089-114.496-134.454-123.165-141.312-6.731-5.324-142.273-20.642-145.907-16.49-1.563 1.786-8.569 36.225-15.569 76.531s-14.359 75.25-16.354 77.653c-2.857 3.443-38.84 4.359-169.609 4.318-91.29-0.027-167.872-1.253-170.181-2.72s-11.962-34.852-21.449-74.188c-9.487-39.336-18.069-74.208-19.071-77.494-2.325-7.626-10.488-7.365-70.506 2.254z" />
<glyph unicode="&#xe911;" horiz-adv-x="949" d="M184.367-42.12c-25.827 4.139-48.291 8.973-49.92 10.743-8.358 9.082-92.555 138.539-92.516 142.247 0.025 2.382 13.572 29.674 30.103 60.65s63.567 119.296 104.525 196.267c40.957 76.971 100.899 188.331 133.204 247.467 60.23 110.254 82.978 153.072 130.884 246.364 15.113 29.431 31.731 59.937 36.928 67.791l9.45 14.28 7.555-9.475c4.155-5.212 19.425-32.645 33.933-60.964 38.506-75.162 71.409-136.568 160.189-298.955 43.621-79.787 113.491-209.579 155.266-288.427s79.918-150.768 84.761-159.823c6.042-11.296 7.79-17.896 5.568-21.027-1.781-2.51-29.755-34.546-62.165-71.191l-58.927-66.626-19.58-2.157c-10.769-1.186-43.108-5.286-71.864-9.111s-53.036-6.202-53.956-5.282c-0.92 0.92-3.74 15.28-6.267 31.912-10.561 69.502-20.112 115.943-24.997 121.546-4.826 5.536-17.394 5.973-171.688 5.973-183.272 0-174.289 1.069-178.989-21.298-4.569-21.743-25.828-113.733-29.194-126.328-4.137-15.478-4.225-15.483-72.304-4.573z" />
<glyph unicode="&#xe912;" horiz-adv-x="949" d="M186.037-40.605l-52.115 9.032-46.018 69.082c-25.31 37.995-45.997 71.019-45.972 73.387 0.057 5.324 11.675 27.152 243.016 456.571 46.018 85.419 103.741 193.707 128.275 240.64s51.061 96.772 58.95 110.752c14.055 24.908 14.458 25.276 20.077 18.337 3.154-3.895 18.563-31.461 34.243-61.259 54.609-103.778 164.118-307.903 185.864-346.453 51.899-92.003 224.268-416.464 223.024-419.814-0.5-1.345-28.49-33.989-62.201-72.541l-61.293-70.095-18.92-2.127c-10.406-1.17-41.96-4.981-70.12-8.47s-52.237-5.29-53.505-4.004c-1.268 1.286-8.117 35.19-15.22 75.342-7.206 40.729-14.971 75.059-17.566 77.653-6.546 6.546-334.43 6.913-342.898 0.384-3.556-2.742-11.708-30.285-22.815-77.087-9.505-40.051-18.152-74.227-19.214-75.947-2.557-4.137-4.937-3.897-65.591 6.615z" />
<glyph unicode="&#xe913;" horiz-adv-x="949" d="M186.037-40.605l-52.115 9.032-46.018 69.082c-25.31 37.995-45.997 71.019-45.972 73.387 0.055 5.174 44.619 88.976 217.383 408.784 71.549 132.447 132.162 246.17 179.853 337.447 19.973 38.225 39.279 73.27 42.904 77.879l6.59 8.378 8.182-13.025c4.5-7.164 26.288-47.585 48.419-89.825 59.762-114.067 182.832-342.281 187.753-348.16 2.357-2.816 32.963-59.29 68.013-125.499s79.822-150.614 99.493-187.569c19.671-36.955 35.357-68.29 34.858-69.635s-28.49-33.988-62.201-72.54l-61.293-70.095-18.92-2.127c-10.406-1.17-41.96-4.981-70.12-8.47s-52.254-5.29-53.543-4.004c-1.873 1.871-26.671 136.393-26.671 144.685 0 1.228-2.414 4.647-5.364 7.597-4.729 4.729-25.038 5.364-171.721 5.364-127.859 0-167.638-0.987-171.89-4.267-3.556-2.742-11.708-30.285-22.815-77.087-9.505-40.051-18.152-74.227-19.214-75.947-2.557-4.137-4.937-3.897-65.591 6.615zM535.586 638.293c-1.008 7.040-2.78 22.016-3.938 33.28-2.116 20.588-18.313 119.39-34.119 208.133-4.673 26.239-8.497 49.151-8.497 50.916 0 16.040-14.364-40.751-43.073-170.302-9.644-43.52-25.193-125.819-25.193-133.346 0-0.814 26.247-1.48 58.327-1.48h58.327z" />
<glyph unicode="&#xe914;" horiz-adv-x="949" d="M186.037-40.605l-52.115 9.032-46.018 69.082c-25.31 37.995-45.997 71.019-45.972 73.387 0.058 5.394 10.839 25.635 255.927 480.464 53.11 98.56 114.854 214.475 137.209 257.589s41.339 79.082 42.186 79.929c5.912 5.912 3.123-10.96-12.14-73.426-27.026-110.609-75.067-336.751-75.067-353.363v-8.009h171.355l-2.241 20.48c-6.219 56.835-38.504 256.245-58.012 358.311-6.449 33.743-11.213 61.863-10.587 62.49 2.57 2.57 16.725-22.029 55.549-96.534 53.917-103.469 181.507-339.946 186.927-346.453 2.345-2.816 32.942-59.29 67.992-125.499s79.834-150.637 99.52-187.619c19.686-36.982 35.082-68.828 34.213-70.768s-28.623-34.247-61.677-71.794l-60.097-68.267-70.671-9.157c-38.869-5.037-71.792-8.063-73.161-6.726s-6.327 26.962-11.018 56.944c-12.669 80.977-15.031 91.651-21.315 96.326-4.404 3.276-44.259 4.267-171.684 4.267-127.532 0-167.229-0.988-171.481-4.267-3.556-2.742-11.708-30.285-22.815-77.087-9.505-40.051-18.152-74.227-19.214-75.947-2.557-4.137-4.937-3.897-65.591 6.615z" />
<glyph unicode="&#xe915;" horiz-adv-x="949" d="M191.136-41.776c-25.859 4.306-49.121 8.637-51.692 9.624-4.705 1.806-94.883 133.353-96.969 141.454-1.129 4.383 55.799 115.261 69.68 135.715 4.12 6.072 36.665 66.131 72.322 133.465s103.159 193.849 150.006 281.145c46.846 87.296 97.955 183.68 113.574 214.187s29.693 55.467 31.274 55.467c4.006 0 4.695 3.568-14.374-74.472-26.881-110.009-74.91-336.158-74.91-352.719v-8.009h171.355l-2.241 20.48c-6.219 56.835-38.504 256.245-58.012 358.311-6.449 33.743-11.213 61.863-10.587 62.49 2.57 2.57 16.725-22.029 55.549-96.534 53.917-103.469 181.507-339.946 186.927-346.453 2.345-2.816 32.942-59.29 67.992-125.499s79.799-150.571 99.442-187.473c32.625-61.29 35.306-67.707 30.991-74.181-2.598-3.898-30.321-36.271-61.605-71.94l-56.882-64.853-70.665-9.157c-38.866-5.037-71.785-8.063-73.155-6.726s-6.327 26.962-11.018 56.944c-11.672 74.609-14.902 90.633-19.346 95.988-5.411 6.52-341.642 6.848-346.987 0.339-1.927-2.347-11.32-37.036-20.874-77.087s-18.24-74.227-19.302-75.947c-2.497-4.041-4.749-3.838-60.492 5.445z" />
<glyph unicode="&#xe916;" horiz-adv-x="949" d="M191.136-41.776c-25.859 4.306-49.121 8.637-51.692 9.624-4.705 1.806-94.883 133.353-96.969 141.454-1.129 4.383 55.799 115.261 69.68 135.715 4.12 6.072 37.053 66.899 73.183 135.171s86.512 162.531 111.959 209.465c25.447 46.933 50.352 93.013 55.345 102.4s16.751 30.891 26.13 47.787c9.379 16.896 34.315 64.896 55.413 106.667 35.635 70.549 47.851 89.636 42.602 66.56-1.174-5.163-8.843-36.267-17.042-69.12-25.777-103.294-97.018-438.551-97-456.477 0.007-5.348 3.572-5.998 31.573-5.755 20.648 0.179 38.061 2.416 50.341 6.466 31.512 10.393 124.405 46.403 127.446 49.405 4.262 4.206-41.468 294.404-69.145 438.788-5.398 28.16-9.188 51.856-8.422 52.657 2.734 2.862 11.582-12.532 41.055-71.431 16.44-32.853 42.11-82.005 57.044-109.227 30.708-55.974 29.479-53.712 90.936-167.253 24.896-45.995 47.169-85.931 49.497-88.747s32.91-59.29 67.96-125.499c35.050-66.208 79.799-150.571 99.442-187.473 32.625-61.29 35.306-67.707 30.991-74.181-2.598-3.898-30.317-36.271-61.598-71.94-51.629-58.872-57.951-64.918-68.549-65.557-10.507-0.633-44.497-5.224-107.237-14.484-12.067-1.781-23.029-2.565-24.36-1.743-2.678 1.655-5.39 14.954-8.324 40.824-5.442 47.986-16.609 106.394-21.372 111.787-4.892 5.538-17.644 5.973-174.996 5.973-131.632 0-170.506-0.958-173.224-4.267-1.927-2.347-11.32-37.036-20.874-77.087s-18.24-74.227-19.302-75.947c-2.497-4.041-4.749-3.838-60.492 5.445z" />
<glyph unicode="&#xe917;" horiz-adv-x="949" d="M192.106-40.378l-56.287 8.871-46.967 69.526c-25.832 38.239-46.958 71.249-46.947 73.354 0.023 4.584 66.926 131.318 73.196 138.654 2.407 2.816 19.385 33.536 37.73 68.267s58.282 109.227 88.75 165.547c75.335 139.258 131.677 244.952 178.312 334.507 44.818 86.066 55.503 105.227 57.541 103.189 0.799-0.799-6.19-32.024-15.532-69.388-27.826-111.294-99.176-445.661-99.157-464.679 0.007-5.348 3.572-5.998 31.573-5.755 20.648 0.179 38.061 2.416 50.341 6.466 31.512 10.393 124.405 46.403 127.446 49.405 4.262 4.206-41.468 294.404-69.145 438.788-8.698 45.377-10.062 57.544-5.897 52.622 0.662-0.782 14.714-27.534 31.228-59.449s45.789-87.211 65.056-122.88c19.268-35.669 56.752-105.545 83.299-155.279s51.060-93.51 54.474-97.28c3.414-3.77 34.878-61.025 69.922-127.234s79.786-150.568 99.427-187.466c19.641-36.898 35.711-67.367 35.711-67.709s-3.456-4.358-7.68-8.924c-4.224-4.566-32.735-36.944-63.359-71.95-33.305-38.072-57.994-63.508-61.44-63.3-3.169 0.192-32.927-3.185-66.129-7.504s-62.537-7.020-65.189-6.003c-3.043 1.168-6.319 11.72-8.881 28.609-13.507 89.015-19.106 118.376-23.389 122.659-3.988 3.988-33.272 4.785-174.363 4.741-93.263-0.027-171.382-1.205-173.596-2.613-3.882-2.469-26.93-89.058-35.428-133.098-2.273-11.779-5.077-21.9-6.232-22.491s-27.429 2.917-58.386 7.796z" />
<glyph unicode="&#xe918;" horiz-adv-x="949" d="M192.106-40.378l-56.287 8.871-46.967 69.526c-25.832 38.239-46.958 71.249-46.947 73.354 0.023 4.584 66.926 131.318 73.196 138.654 2.407 2.816 19.385 33.536 37.73 68.267s58.282 109.227 88.75 165.547c75.335 139.258 131.677 244.952 178.312 334.507 45.055 86.52 55.501 105.229 57.59 103.14 0.826-0.826-4.862-25.907-12.64-55.735s-16.537-64.216-19.465-76.419c-9.040-37.675-91.925-435.132-90.986-436.304 0.852-1.064 216.889 80.944 219.596 83.359 2.26 2.016-50.778 342.168-59.557 381.959-10.75 48.724-21.551 108.836-19.882 110.649 1.941 2.107 1.37 3.112 33.741-59.449 16.513-31.915 45.789-87.211 65.056-122.88s56.752-105.545 83.299-155.279c26.547-49.734 51.060-93.51 54.474-97.28s34.878-61.025 69.922-127.234c35.044-66.208 79.786-150.568 99.427-187.466s35.711-67.367 35.711-67.709c0-0.342-3.456-4.358-7.68-8.924s-32.87-37.098-63.658-72.292c-30.788-35.195-57.609-63.447-59.603-62.782-2.761 0.92-18.011 103.211-19.063 127.873-0.14 3.269-16.598 4.267-70.399 4.267-57.864 0-71.118 0.901-75.337 5.12-4.415 4.415-28.464 5.113-174.69 5.068-93.263-0.027-171.382-1.205-173.596-2.613-3.882-2.469-26.93-89.058-35.428-133.098-2.273-11.779-5.077-21.9-6.232-22.491s-27.429 2.917-58.386 7.796zM668.131-42.667c-4.31 11.539-11.386 72.651-8.721 75.316 3.279 3.279 129.996-57.309 129.996-62.156 0-3.166-9.972-5.045-66.343-12.494-45.631-6.030-52.895-6.119-54.932-0.667z" />
<glyph unicode="&#xe919;" horiz-adv-x="949" d="M192.106-40.378l-56.287 8.871-46.967 69.526c-25.832 38.239-46.958 71.249-46.947 73.354 0.023 4.598 66.944 131.346 73.208 138.654 2.413 2.816 20.191 35.072 39.506 71.68s53.096 99.584 75.069 139.947c21.973 40.363 53.45 98.731 69.947 129.707s49.050 90.627 72.339 132.557c23.289 41.931 47.281 87.243 53.315 100.693 15.836 35.299 47.22 95.023 48.998 93.246 2.126-2.126-10.992-56.581-21.505-89.27-4.83-15.019-23.899-101.035-42.376-191.147s-39.32-191.104-46.319-224.427c-6.999-33.323-11.939-61.373-10.978-62.334 2.223-2.223 214.767 79.795 220.14 84.948 3.060 2.935 2.898 10.675-0.688 32.853-2.58 15.957-14.787 96.597-27.125 179.2s-25.354 160.939-28.923 174.080c-8.406 30.949-21.736 100.749-19.642 102.843 1.917 1.917 31.792-53.965 62.226-116.399 11.923-24.459 32.641-63.671 46.039-87.138s45.861-82.603 72.14-131.413c26.279-48.811 50.54-91.819 53.914-95.573s34.807-60.997 69.851-127.205c35.044-66.208 79.786-150.568 99.427-187.466s35.711-67.367 35.711-67.709c0-0.342-3.456-4.353-7.68-8.913s-32.136-36.272-62.026-70.472c-29.89-34.199-56.063-62.181-58.162-62.181-2.399 0-6.719 23.761-11.634 63.989-4.3 35.194-8.586 64.762-9.526 65.707-4.751 4.778-473.58 13.053-491.482 8.674-6.43-1.573-9.261-9.708-22.9-65.815-8.56-35.212-16.568-69.798-17.797-76.859s-3.211-13.342-4.406-13.958c-1.195-0.616-27.502 2.872-58.46 7.751zM668.236-43.525c-4.176 6.757-6.264 51.205-2.405 51.205 5.926 0 80.791-37.513 82.046-41.112 0.626-1.794 0.626-3.263 0-3.266s-14.194-2.304-30.151-5.115c-33.943-5.979-46.583-6.416-49.49-1.712z" />
<glyph unicode="&#xe91a;" horiz-adv-x="949" d="M192.479-40.509l-55.913 8.685-95.091 142.401 30.39 56.925c87.542 163.979 117.994 220.72 156.036 290.738 22.949 42.24 55.227 102.144 71.728 133.12s49.057 90.627 72.345 132.557c23.289 41.931 47.281 87.243 53.315 100.693 15.836 35.299 47.22 95.023 48.998 93.246 2.126-2.126-10.992-56.581-21.505-89.27-4.83-15.019-23.899-101.035-42.376-191.147s-39.32-191.104-46.319-224.427c-6.999-33.323-11.939-61.373-10.978-62.334 2.223-2.223 214.767 79.795 220.14 84.948 3.060 2.935 2.898 10.675-0.688 32.853-2.58 15.957-14.787 96.597-27.125 179.2s-25.354 160.939-28.923 174.080c-8.406 30.949-21.736 100.749-19.642 102.843 1.917 1.917 31.792-53.965 62.226-116.399 11.923-24.459 32.643-63.671 46.044-87.138s42.876-77.227 65.501-119.467c22.625-42.24 47.611-87.552 55.526-100.693s22.088-38.485 31.496-56.32c9.408-17.835 52.655-99.37 96.104-181.19s78.998-150.477 78.998-152.571c0-2.094-4.001-8.111-8.891-13.37s-32.019-36.059-60.287-68.443c-28.268-32.384-53.128-58.88-55.245-58.88-2.442 0-6.708 23.398-11.667 63.989-4.3 35.194-8.586 64.762-9.526 65.707-4.751 4.778-473.58 13.053-491.482 8.674-6.43-1.573-9.261-9.708-22.9-65.815-8.56-35.212-16.568-69.798-17.797-76.859s-3.211-13.329-4.406-13.93c-1.195-0.601-27.334 2.816-58.086 7.592zM668.236-43.525c-4.176 6.757-6.264 51.205-2.405 51.205 5.926 0 80.791-37.513 82.046-41.112 0.626-1.794 0.626-3.263 0-3.266s-14.194-2.304-30.151-5.115c-33.943-5.979-46.583-6.416-49.49-1.712z" />
<glyph unicode="&#xe91b;" horiz-adv-x="949" d="M192.479-40.509l-55.913 8.685-95.091 142.401 30.39 56.925c88.266 165.336 119.973 224.297 178.82 332.524 35.463 65.222 74.055 135.11 85.759 155.307l21.28 36.721 28.96 1.82c15.928 1.001 29.494 1.492 30.146 1.091 2.717-1.672-23.742-138.567-54.549-282.225-7.581-35.351-13.143-64.915-12.361-65.698s51.987 18.336 113.787 42.485l112.364 43.908-0.415 13.257c-0.228 7.291-6.716 56.265-14.417 108.83s-14.985 105.557-16.185 117.76l-2.183 22.187 35.374-1.116c27.46-0.866 36.648-2.393 41.069-6.827 3.132-3.141 24.463-39.503 47.4-80.804s49.771-88.917 59.631-105.813c9.859-16.896 39.027-70.656 64.818-119.467s68.202-128.821 94.247-177.801c26.046-48.98 47.356-90.757 47.356-92.837s-4.001-8.086-8.891-13.346c-4.89-5.259-32.019-36.059-60.287-68.443s-52.51-58.88-53.872-58.88c-1.362 0-4.316 14.976-6.565 33.28s-5.888 47.872-8.087 65.707l-3.998 32.427-76.777 2.661c-99.306 3.441-409.090 6.627-418.588 4.304-4.017-0.982-8.171-4.048-9.232-6.813-2.288-5.961-28.030-117.366-31.396-135.87-1.284-7.061-3.313-13.329-4.508-13.93s-27.334 2.816-58.086 7.592zM669.014-44.871c-2.819 2.819-3.454 32.071-0.696 32.071 0.986 0 12.884-5.586 26.442-12.413 20.329-10.237 23.455-12.854 17.835-14.928-11.317-4.176-40.921-7.389-43.58-4.729zM433.478 828.959c-1.143 1.143 1.008 9.911 4.781 19.484 8.221 20.857 30.47 61.318 32.566 59.222 1.912-1.912-11.573-54.862-17.717-69.567-4.347-10.403-13.912-14.856-19.63-9.139zM515.926 836.267c-5.206 13.362-17.061 73.142-15.728 79.311 0.614 2.843 10.844-14.233 22.733-37.947s20.555-44.834 19.257-46.933c-1.298-2.099-6.915-3.817-12.482-3.817-7.881 0-10.933 2.079-13.78 9.387z" />
<glyph unicode="&#xe91c;" horiz-adv-x="949" d="M192.479-40.523l-55.913 8.699-95.112 142.431 32.243 60.323c17.734 33.178 49.481 92.579 70.551 132.003 106.631 199.524 152.521 282.879 173.355 314.88l11.667 17.92h74.739l-1.844-11.093c-1.014-6.101-4.25-25.685-7.191-43.52s-13.929-73.131-24.418-122.88c-21.868-103.719-23.377-112.64-19.059-112.64 5.567 0 220.491 85.004 224.134 88.646 2.4 2.4 0.024 28.554-7.528 82.87-6.069 43.65-11.932 88.58-13.028 99.844l-1.994 20.48 92.432-2.069 8.347-10.943c4.591-6.019 18.769-29.361 31.507-51.872s31.203-54.753 41.033-71.649c9.83-16.896 38.973-70.656 64.764-119.467s68.202-128.821 94.247-177.801c45.335-85.255 51.11-98.408 44.324-100.955-1.667-0.626-27.845-29.554-58.172-64.284s-56.481-63.615-58.119-64.188c-4.358-1.524-5.817 5.851-12.36 62.481-3.254 28.16-7.153 54.599-8.664 58.752-2.694 7.405-4.233 7.59-78.827 9.459-41.844 1.049-152.722 2.67-246.396 3.604-148.502 1.48-171.33 1.033-178.227-3.486-6.455-4.23-21.43-5.183-81.417-5.183-40.429 0-73.508-1.152-73.508-2.56s32.639-2.56 72.533-2.56h72.535l-0.512-11.173c-0.637-13.898-25.132-128.039-28.064-130.771-1.179-1.099-27.305 1.917-58.057 6.701zM669.939-40.107c0 7.871 1.256 8.221 10.926 3.046 5.665-3.032 6.128-4.373 2.336-6.774-7.881-4.991-13.261-3.479-13.261 3.728zM443.19 850.388c-1.891 3.059 21.6 53.071 23.864 50.807 2.133-2.133-8.799-44.67-12.682-49.349-4.324-5.21-8.525-5.757-11.182-1.458zM514.867 850.394c-2.618 4.236-12.234 50.778-11.937 57.775 0.134 3.163 7.010-7.895 15.279-24.573s14.213-31.654 13.208-33.28c-2.391-3.869-14.145-3.814-16.55 0.078z" />
<glyph unicode="&#xe91d;" horiz-adv-x="949" d="M188.003-38.567c-25.705 4.145-49.366 9.719-52.58 12.385s-25.674 34.536-49.91 70.82l-44.066 65.972 34.796 65.442c19.138 35.993 38.936 71.586 43.998 79.095 8.204 12.173 60.694 110.061 141.848 264.533 29.112 55.413 44.162 81.874 58.727 103.253l8.72 12.8h74.474l-1.844-11.093c-1.014-6.101-4.25-25.685-7.191-43.52s-13.929-73.131-24.418-122.88c-21.868-103.719-23.377-112.64-19.059-112.64 5.567 0 220.491 85.004 224.134 88.646 2.4 2.4 0.024 28.554-7.528 82.87-6.069 43.65-11.932 88.58-13.028 99.844l-1.994 20.48 92.432-2.069 8.237-10.912c11.735-15.546 41.289-66.371 57.611-99.076 7.655-15.339 16.587-30.962 19.848-34.716s14.386-22.955 24.721-42.667c10.335-19.712 54.504-103.070 98.153-185.241s78.595-151.29 77.658-153.6c-2.285-5.628-114.471-133.622-118.281-134.947-4.374-1.522-5.828 5.816-12.375 62.481-3.254 28.16-7.174 54.656-8.712 58.88-2.778 7.631-3.256 7.681-75.414 7.789-58.441 0.087-73.911 1.087-79.244 5.12-5.615 4.247-31.969 5.011-172.766 5.011-160.972 0-166.411-0.212-174.819-6.827-8.070-6.348-13.847-6.827-82.38-6.827-40.536 0-73.703-1.152-73.705-2.56s31.731-2.114 70.518-1.569c40.33 0.567 71.879-0.366 73.692-2.18 4.055-4.055-5.649-53.476-25.067-127.665-3.955-15.111-0.451-14.873-65.183-4.434zM669.939-40.107c0 7.871 1.256 8.221 10.926 3.046 5.665-3.032 6.128-4.373 2.336-6.774-7.881-4.991-13.261-3.479-13.261 3.728zM443.19 850.388c-1.891 3.059 21.6 53.071 23.864 50.807 2.133-2.133-8.799-44.67-12.682-49.349-4.324-5.21-8.525-5.757-11.182-1.458zM514.867 850.394c-2.618 4.236-12.234 50.778-11.937 57.775 0.134 3.163 7.010-7.895 15.279-24.573s14.213-31.654 13.208-33.28c-2.391-3.869-14.145-3.814-16.55 0.078z" />
<glyph unicode="&#xe91e;" horiz-adv-x="949" d="M188.003-38.567c-25.705 4.145-49.366 9.719-52.58 12.385s-25.674 34.536-49.91 70.82l-44.066 65.972 34.796 65.442c19.138 35.993 38.953 71.586 44.034 79.095s20.501 35.157 34.267 61.44c54.41 103.882 123.935 232.265 136.884 252.769l13.654 21.619 43.336 1.046c23.835 0.575 43.967 0.67 44.739 0.211 2.638-1.569-24.557-146.2-39.269-208.842-4.598-19.578-7.175-36.739-5.727-38.135 3.295-3.177 226.313 83.836 230.233 89.827 1.577 2.411 2.173 7.456 1.324 11.211-1.63 7.205-13.725 96.109-17.415 128l-2.172 18.773 108.103-1.902 8.533-9.908c4.693-5.449 17.631-26.525 28.75-46.836s22.788-39.999 25.931-43.754c3.143-3.755 15.375-25.259 27.184-47.787s54.155-102.43 94.104-177.56c39.949-75.13 74.497-140.689 76.774-145.687 3.956-8.682 2.789-10.585-26.168-42.666-16.67-18.468-43.305-48.525-59.189-66.793s-29.826-33.215-30.981-33.215c-1.156 0-5.472 27.078-9.591 60.174s-8.316 61.512-9.327 63.147c-1.010 1.635-35.154 3.021-75.876 3.081-59.69 0.087-75.323 1.080-80.664 5.12-9.963 7.535-334.762 7.496-345.524-0.042-5.743-4.023-22.784-5.241-83.533-5.973l-76.318-0.92 0.683-15.36c0.376-8.448 1.523-19.968 2.551-25.6l1.868-10.24 63.689 1.003c35.029 0.552 65.060-0.368 66.736-2.044 2.795-2.795-5.145-48.391-14.433-82.884-4.24-15.745-0.498-15.46-65.429-4.989zM513.195 873.244c0.164 3.976 0.973 4.785 2.062 2.062 0.986-2.464 0.865-5.408-0.269-6.542s-1.941 0.882-1.793 4.48z" />
<glyph unicode="&#xe91f;" horiz-adv-x="949" d="M187.699-38.359c-25.872 4.308-49.533 9.902-52.58 12.429s-25.37 34.283-49.606 70.568l-44.066 65.972 34.796 65.442c19.138 35.993 38.951 71.586 44.030 79.095s27.409 48.213 49.622 90.453c55.102 104.781 94.428 176.79 108.942 199.479l12.138 18.974h42.43c23.336 0 45.067 1.012 48.29 2.249 5.287 2.029 5.618 0.308 3.38-17.6-1.364-10.917-10.205-57.625-19.647-103.795-21.786-106.535-21.152-102.72-17.085-102.72 6.425 0 224.286 86.109 228.952 90.493 3.899 3.663 3.492 12.566-2.56 56.028-3.957 28.42-7.197 57.383-7.199 64.363l-0.003 12.69 118.813-2.006 19.578-33.13c10.768-18.222 22.202-36.202 25.409-39.957s15.492-25.259 27.3-47.787c11.809-22.528 54.155-102.43 94.104-177.56s74.548-140.8 76.887-145.933c3.983-8.741 3.405-10.145-9.113-22.12-7.351-7.033-34.073-36.144-59.381-64.692-27.903-31.474-46.856-50.284-48.151-47.787-1.175 2.265-4.855 27.926-8.178 57.025-3.799 33.263-7.82 54.808-10.83 58.027-6.129 6.555-94.972 9.855-326.771 12.138-145.405 1.432-167.92 0.976-174.813-3.54-6.48-4.246-21.725-5.184-84.263-5.184-41.993 0-77.136-0.784-78.094-1.743-1.73-1.73 5.886-63.087 9.085-73.196 1.44-4.55 10.117-5.136 63.155-4.272 33.817 0.551 61.485-0.318 61.485-1.933 0-5.089-7.117-42.892-10.588-56.242-3.95-15.191-0.828-14.989-65.465-4.226z" />
<glyph unicode="&#xe920;" horiz-adv-x="949" d="M187.699-38.359c-25.872 4.308-49.533 9.902-52.58 12.429s-25.37 34.283-49.606 70.568l-44.066 65.972 34.796 65.442c19.138 35.993 38.951 71.586 44.030 79.095s27.409 48.213 49.622 90.453c50.107 95.283 93.242 174.674 105.151 193.531l9.050 14.331 99.134 2.059-0.020-11.947c-0.014-6.571-7.88-50.347-17.484-97.28-22.114-108.064-21.453-104.107-17.381-104.107 6.335 0 224.252 86.077 228.858 90.399 3.772 3.539 3.222 14.141-3.253 62.62-4.287 32.098-7.098 58.799-6.248 59.337s29.177 0.21 62.947-0.729l61.401-1.707 10.279-16.102c5.654-8.856 15.122-23.448 21.041-32.427 12.281-18.63 26.895-45.573 133.603-246.323 60.41-113.65 76.149-145.849 73.41-150.187-3.043-4.818-11.912-5.431-69.671-4.808-36.403 0.393-102.282 2.38-146.399 4.417s-155.319 4.433-247.115 5.324c-145.378 1.411-167.922 0.951-174.813-3.564-6.48-4.246-21.725-5.184-84.263-5.184-41.993 0-77.136-0.784-78.094-1.743-1.622-1.622 5.287-59.79 8.916-75.057 1.556-6.549 4.011-6.785 60.326-5.813 32.287 0.557 59.908-0.211 61.381-1.707 2.385-2.422-3.741-42.962-8.992-59.507-2.467-7.773-4.375-7.707-63.958 2.215z" />
<glyph unicode="&#xe921;" horiz-adv-x="949" d="M187.699-38.359c-25.872 4.308-49.533 9.902-52.58 12.429s-25.37 34.283-49.606 70.568l-44.066 65.972 34.796 65.442c19.138 35.993 38.948 71.586 44.024 79.095s26.599 46.677 47.831 87.040c60.919 115.812 87.918 164.972 99.036 180.319l10.316 14.241h103.144l-2.451-19.617c-1.348-10.789-8.516-48.805-15.93-84.48-18.094-87.074-18.562-90.463-12.498-90.463 8.204 0 222.185 84.817 227.573 90.205 4.395 4.395 4.314 10.533-0.666 50.521-3.118 25.035-5.669 47.389-5.669 49.676 0 3.122 16.084 4.158 64.545 4.158h64.545l16.522-24.243c9.087-13.334 24.262-38.294 33.722-55.467 41.82-75.916 182.48-342.862 182.48-346.313 0-12.071-25.982-12.543-218.453-3.97-44.117 1.965-155.319 4.314-247.115 5.22-145.409 1.435-167.92 0.98-174.813-3.537-6.483-4.248-21.764-5.184-84.63-5.184-42.195 0-77.502-1.267-78.459-2.816-1.67-2.703 5.833-67.361 10.072-86.784l2.048-9.387h115.511l-0.019-12.8c-0.011-7.040-1.619-18.56-3.574-25.6-4.215-15.178-1.079-14.976-65.634-4.226z" />
<glyph unicode="&#xe922;" horiz-adv-x="949" d="M187.699-38.359c-25.872 4.308-49.533 9.902-52.58 12.429s-25.37 34.283-49.606 70.568l-44.066 65.972 34.796 65.442c19.138 35.993 38.948 71.586 44.024 79.095s26.599 46.677 47.831 87.040c71.287 135.524 89.264 167.387 93.102 165.016 2.238-1.383 2.976-0.377 1.857 2.531-1.564 4.064 6.977 4.667 54.033 3.814l55.891-1.013v-12.535c0-11.648-25.909-145.965-29.176-151.25-0.808-1.307 0.434-3.897 2.76-5.755 4.8-3.834 220.977 79.649 230.243 88.915 4.674 4.674 4.918 9.982 1.869 40.6-2.579 25.902-2.484 35.886 0.358 37.731 2.126 1.379 32.537 2.531 67.581 2.56 47.819 0.039 64.145-1.012 65.437-4.214 1.309-3.244 1.786-3.181 1.991 0.261 0.465 7.81 21.932-23.516 41.7-60.848 10.437-19.712 54.69-103.070 98.339-185.241 49.471-93.131 78.576-151.451 77.274-154.843-1.887-4.917-16.003-5.202-146.259-2.948-79.294 1.372-146.758 3.852-149.92 5.51s-80.052 3.015-170.868 3.015c-139.898 0-166.131-0.765-171.744-5.011-5.374-4.065-21.616-5.032-85.986-5.12-61.19-0.084-79.345-1.085-79.296-4.375 0.035-2.347 3.078-27.307 6.763-55.467s6.727-52.352 6.763-53.76c0.035-1.408 26.176-2.56 58.091-2.56 63.398 0 60.657 1.074 54.434-21.333-4.215-15.178-1.079-14.976-65.634-4.226z" />
<glyph unicode="&#xe923;" horiz-adv-x="949" d="M192.072-37.109c-29.099 4.95-54.897 10.275-57.33 11.833s-24.42 32.769-48.859 69.359l-44.436 66.527 34.796 65.442c19.138 35.993 38.951 71.586 44.030 79.095s27.424 48.213 49.656 90.453c38.206 72.591 80.865 148.702 86.624 154.551 1.439 1.462 28.342 2.998 59.784 3.413l57.167 0.756-2.127-15.36c-3.243-23.425-18.595-101.589-24.394-124.201-3.072-11.979-3.906-21.341-2.066-23.181 2.318-2.318 151.925 53.257 228.134 84.746 7.041 2.909 10.152 16.44 7.731 33.623-1.322 9.387-2.54 23.211-2.707 30.72l-0.302 13.653 70.106-0.988c66.154-0.933 70.583-1.403 78.569-8.347 4.655-4.047 18.625-26.642 31.045-50.211s57.091-107.776 99.27-187.126c47.64-89.626 75.899-146.329 74.605-149.701-1.879-4.898-16.164-5.185-146.262-2.945-79.299 1.366-146.766 3.835-149.928 5.488s-79.654 3.005-169.983 3.005c-140.841 0-165.674-0.745-174.347-5.23-8.256-4.269-23.956-5.165-85.49-4.877-41.457 0.194-76.162-0.433-77.122-1.393-2.25-2.25 8.395-96.139 12.651-111.577l3.239-11.75 51.823 1.030c34.344 0.683 52.588-0.208 54.091-2.639 2.685-4.344 0.256-24.175-2.887-23.579-1.195 0.227-25.981 4.462-55.079 9.412z" />
<glyph unicode="&#xe924;" horiz-adv-x="949" d="M129.906-20.48c-2.859 3.285-23.932 34.123-46.83 68.529l-41.632 62.555 34.797 65.445c19.138 35.995 38.95 71.589 44.025 79.098s26.553 46.548 47.727 86.752c38.739 73.556 61.328 112.975 71.070 124.022 4.647 5.269 12.453 5.973 66.219 5.973h60.951l-2.127-14.507c-1.17-7.979-5.868-32.171-10.441-53.76-13.112-61.909-13.023-61.034-6.499-63.537 8.763-3.363 220.097 79.11 229.76 89.663 5.798 6.332 7.68 12.524 7.68 25.264v16.876h35.51c31.858 0 39.086 1.245 70.286 12.105 26.68 9.287 35.866 11.201 39.454 8.223 2.573-2.135 14.924-23.326 27.448-47.092s57.28-108.133 99.458-187.483c47.746-89.824 75.9-146.326 74.601-149.712-1.883-4.907-16.011-5.214-144.556-3.135-78.358 1.267-146.313 3.77-151.012 5.564-9.258 3.533-280.41 1.768-423.243-2.755l-83.627-2.648-1.088-9.468c-1.086-9.447 8.302-99.706 11.885-114.266 2.256-9.167-2.592-10.010-9.817-1.707z" />
<glyph unicode="&#xe925;" horiz-adv-x="949" d="M99.756 27.1c-19.626 29.454-40.767 60.307-46.98 68.562l-11.296 15.009 34.761 65.411c19.119 35.976 35.95 66.179 37.404 67.118 3.015 1.947 9.324 13.441 58.081 105.813 35.825 67.871 57.914 106.223 67.337 116.907 4.647 5.269 12.453 5.973 66.219 5.973h60.951l-2.127-14.507c-1.17-7.979-5.868-32.171-10.441-53.76-13.112-61.909-13.023-61.034-6.499-63.537 8.763-3.363 220.097 79.11 229.76 89.663 5.798 6.332 7.68 12.524 7.68 25.264v16.876h35.51c31.858 0 39.086 1.245 70.288 12.106l34.779 12.106 6.452-7.439c3.549-4.092 14.695-22.979 24.769-41.972s53.906-101.531 97.404-183.418c53.828-101.333 78.361-150.778 76.813-154.813-2.131-5.552-11.382-5.774-145.985-3.495-79.041 1.338-145.169 3.804-146.953 5.48-4.62 4.341-345.643 3.982-348.331-0.366-1.307-2.115-31.929-3.413-80.522-3.413-69.671 0-78.653-0.627-80.57-5.623-2.081-5.424 7.322-104.222 11.406-119.84 4.456-17.039-5.944-5.079-39.91 45.897z" />
<glyph unicode="&#xe926;" horiz-adv-x="949" d="M99.86 26.944c-19.683 29.54-40.871 60.463-47.085 68.718l-11.296 15.009 34.527 64.905c18.99 35.698 37.129 67.711 40.31 71.142s24.215 41.155 46.743 83.834c22.528 42.679 45.11 84.197 50.182 92.262l9.222 14.664 133.456 1.989-0.007-11.947c-0.003-6.571-3.878-27.919-8.607-47.44-7.804-32.214-8.109-36.035-3.295-41.354 3.819-4.22 4.71-9.573 3.184-19.12l-2.12-13.259h246.36v9.6c0 5.28-3.254 32.32-7.232 60.088-6.724 46.941-6.841 51.084-1.674 58.97 4.302 6.566 20.618 14.044 72.232 33.108 37.722 13.933 69.36 23.774 72.859 22.664 3.51-1.114 15.821-20.017 28.463-43.703 172.626-323.427 178.124-334.322 171.279-339.408-5.532-4.11-28.137-4.501-146.488-2.532-76.971 1.281-141.406 3.685-143.189 5.344-4.637 4.311-345.662 3.922-348.332-0.398-1.309-2.118-32.395-3.413-81.92-3.413-43.896 0-80.612-1.297-81.591-2.882s1.299-30.189 5.063-63.565c3.764-33.376 6.372-62.101 5.794-63.834s-17.155 21.019-36.838 50.559z" />
<glyph unicode="&#xe927;" horiz-adv-x="949" d="M129.93-17.088c-2.867 3.297-20.977 29.802-40.245 58.901s-38.106 56.291-41.861 60.427l-6.829 7.521 35.003 65.866c19.252 36.226 36.038 66.634 37.303 67.573 5.81 4.311 19.322 27.64 56.348 97.28 21.959 41.301 40.979 76.158 42.267 77.459s33.448 2.837 71.466 3.413c80.426 1.219 73.783 5.876 62.057-43.495-5.657-23.818-6.291-31.575-3.195-39.051 3.059-7.385 2.424-17.074-3.049-46.494-3.802-20.441-7.887-44.845-9.078-54.232l-2.165-17.067h279.038l-2.714 25.6c-1.493 14.080-7.914 60.036-14.27 102.124-8.599 56.936-10.662 78.488-8.060 84.198 2.739 6.012 18.46 13.293 72.601 33.622 38.008 14.271 71.42 25.059 74.248 23.974s15.138-20.699 27.353-43.585c136.943-256.578 177.117-334.315 174.25-337.182-2.005-2.005-58.564-2.559-148.066-1.451-390.807 4.84-489.203 5.205-492.578 1.83-2.16-2.16-33.62-3.476-83.114-3.476-61.945 0-80.014-0.98-81.33-4.41-0.931-2.426 1.266-31.226 4.881-64s6.208-59.983 5.761-60.464c-0.447-0.481-3.158 1.823-6.025 5.12z" />
<glyph unicode="&#xe928;" horiz-adv-x="949" d="M129.927-17.088c-7.002 8.048-81.109 119.507-83.362 125.378-1.739 4.531 43.701 92.532 72.304 140.030 7.914 13.141 31.56 56.149 52.548 95.573s39.213 72.744 40.501 74.045c1.288 1.301 33.447 2.837 71.465 3.413 80.426 1.219 73.783 5.876 62.057-43.495-5.657-23.818-6.291-31.575-3.195-39.051 3.059-7.385 2.424-17.074-3.049-46.494-3.802-20.441-7.887-44.845-9.078-54.232l-2.165-17.067h279.038l-2.714 25.6c-1.493 14.080-7.914 60.036-14.27 102.124-8.599 56.936-10.662 78.488-8.060 84.198 5.123 11.243 141.213 62.415 147.712 55.542 3.657-3.867 73.157-133.766 177.955-332.6 11.956-22.684 21.738-43.069 21.738-45.299 0-3.095-34.524-3.631-145.92-2.264-395.43 4.853-490.301 5.205-493.676 1.829-2.16-2.16-33.62-3.476-83.114-3.476-61.945 0-80.014-0.98-81.33-4.41-0.931-2.426 1.266-31.226 4.881-64s6.208-59.983 5.761-60.464c-0.447-0.481-3.159 1.823-6.028 5.12z" />
<glyph unicode="&#xe929;" horiz-adv-x="949" d="M90.067 41.222c-22.954 34.354-42.546 64.577-43.539 67.163-2.169 5.652 67.615 136.435 79.074 148.192 5.105 5.238 44.906 22.854 108.836 48.17 122.716 48.595 115.172 49.747 102.578-15.655-4.68-24.302-10.050-54.17-11.933-66.373s-4.203-26.027-5.154-30.72l-1.73-8.533h293.714l-0.007 11.947c-0.003 6.571-6.318 54.955-14.030 107.52-18.018 122.807-18.601 128.985-12.645 133.928 2.62 2.174 35.322 15.6 72.672 29.835 54.698 20.846 68.71 25.031 72.026 21.513 2.264-2.403 39.108-70.417 81.875-151.142 112.413-212.188 119.513-226.097 116.807-228.837-1.347-1.364-69.699-0.616-151.893 1.662s-222.186 4.818-311.093 5.644c-139.831 1.3-163.052 0.802-172.044-3.683-8.386-4.183-25.437-5.186-88.177-5.186-48.707 0-78.578-1.289-79.912-3.449-1.172-1.897 0.434-28.679 3.569-59.515s5.035-58.063 4.221-60.504c-0.814-2.441-20.26 23.67-43.214 58.023z" />
<glyph unicode="&#xe92a;" horiz-adv-x="949" d="M87.478 45.158l-43.621 65.455 20.179 38.134c11.098 20.973 28.703 53.494 39.121 72.267l18.942 34.133 104.107 41.623c57.259 22.892 106.795 41.708 110.080 41.813s6.023-1.729 6.084-4.076c0.061-2.347-9.38-52.914-20.979-112.372-19.097-97.895-21.767-108.288-28.27-110.033-3.95-1.060-41.232-1.949-82.849-1.974-41.617-0.027-78.097-0.979-81.067-2.118-6.841-2.625-6.879-13.898-0.26-76.62 2.827-26.785 4.468-49.372 3.647-50.193s-21.122 27.962-45.113 63.962zM710.899 110.115c-44.117 1.094-80.528 2.302-80.912 2.684-0.992 0.987-1.904 6.748-26.634 168.39-12.244 80.030-21.35 147.886-20.235 150.792s16.882 11.005 35.037 17.997c18.156 6.992 49.906 19.31 70.557 27.372 28.938 11.297 38.439 13.722 41.439 10.575 2.141-2.246 38.055-68.595 79.809-147.443 116.25-219.526 119.392-225.575 119.392-229.831 0-4.26-62.099-4.411-218.453-0.534z" />
<glyph unicode="&#xe92b;" horiz-adv-x="949" d="M89.077 43.963c-21.262 31.562-39.972 59.956-41.579 63.099-2.142 4.19 6.33 22.876 31.772 70.073 19.081 35.397 37.292 66.833 40.468 69.857 7.313 6.963 215.254 89.947 218.145 87.056 2.752-2.752-39.861-214.025-44.313-219.7-2.514-3.205-24.036-4.267-86.49-4.267h-83.144l-1.997-7.956c-1.098-4.376 0.244-31.64 2.982-60.587s4.492-53.155 3.896-53.795c-0.595-0.64-18.478 24.659-39.74 56.221zM637.035 112.692c-3.962 2.554-53.794 307.28-51.809 316.816 0.685 3.289 26.79 15.237 70.646 32.334 38.258 14.915 70.782 27.118 72.275 27.118s17.227-27.264 34.964-60.587c90.782-170.552 162.751-306.994 164.74-312.32 2.103-5.63-6.067-5.97-142.347-5.921-79.518 0.027-146.329 1.181-148.469 2.56z" />
<glyph unicode="&#xe92c;" horiz-adv-x="949" d="M91.883 45.308c-18.496 27.881-36.544 53.331-40.107 56.555s-6.477 7.28-6.477 9.013c0 1.733 15.588 32.073 34.641 67.421 25.469 47.252 36.992 65.376 43.52 68.446 24.342 11.45 209.982 84.918 211.284 83.616 1.298-1.298-18.237-101.542-36.607-187.853l-5.812-27.307-82.078-0.913c-73.35-0.816-82.657-1.553-87.523-6.929-4.949-5.468-4.988-10.796-0.427-58.488 2.76-28.86 4.612-52.873 4.116-53.364s-16.034 21.92-34.531 49.802zM713.716 112.636l-77.396 0.984-1.87 9.323c-1.028 5.128-5.721 33.899-10.429 63.937s-14.734 93.506-22.281 141.042c-7.547 47.536-13.722 90.624-13.722 95.752 0 8.926 2.581 10.321 60.587 32.735 33.323 12.876 65.475 25.445 71.449 27.93l10.862 4.519 32.222-60.536c90.782-170.553 162.724-306.944 164.713-312.269 2.437-6.523 14.714-6.327-214.135-3.417z" />
<glyph unicode="&#xe92d;" horiz-adv-x="949" d="M46.625 108.134c-1.030 2.684 13.829 34.012 33.020 69.618 33.849 62.8 35.364 64.952 50.62 71.917 31.314 14.295 203.188 81.982 204.596 80.574 1.34-1.34-33.442-175.252-40.789-203.948l-3.277-12.8h-81.37c-68.165 0-82.060-0.831-85.62-5.12-6.030-7.266-74.403-7.478-77.18-0.24zM713.459 112.637c-59.175 0.75-77.653 1.997-77.653 5.237 0 2.338-10.745 70.278-23.878 150.976s-23.867 150.564-23.854 155.257c0.024 7.86 4.397 10.238 55.451 30.136 30.485 11.882 62.638 24.495 71.452 28.029l16.025 6.426 32.179-60.456c90.782-170.555 162.682-306.866 164.67-312.189 2.437-6.524 14.945-6.325-214.392-3.417z" />
<glyph unicode="&#xe92e;" horiz-adv-x="949" d="M49.566 105.514c-2.347 0.947-4.267 3.193-4.267 4.99 0 4.506 61.231 118.51 64.854 120.749 4.183 2.585 5.87-5.445 10.039-47.787 2.033-20.651 4.452-44.331 5.375-52.624 2.66-23.895-2.93-27.648-40.69-27.32-17.074 0.148-32.964 1.044-35.311 1.991zM639.219 115.846c0 2.385-18.584 117.199-39.122 241.701-8.362 50.691-10.268 69.242-7.403 72.054 2.122 2.083 32.274 14.902 67.005 28.488s64.897 25.421 67.037 26.3c4.815 1.98 7.392-2.589 98.522-174.628 40.772-76.971 80.997-152.619 89.389-168.107l15.258-28.16h-145.343c-79.939 0-145.343 1.059-145.343 2.352z" />
<glyph unicode="&#xe92f;" horiz-adv-x="949" d="M45.299 110.22c0 4.89 61.167 118.755 65.1 121.186 1.742 1.076 3.363-1.589 3.603-5.924s0.799-11.358 1.243-15.606c7.416-70.979 9.116-93.428 7.409-97.876-1.684-4.389-8.712-5.333-39.7-5.333-23.816 0-37.654 1.306-37.654 3.553zM791.749 116.053c-0.81 1.408-2.495 9.614-3.743 18.235-2.934 20.26-4.64 30.959-8.933 56.005-1.931 11.264-4.050 25.088-4.711 30.72s-9.165 61.396-18.9 123.921c-9.735 62.525-17.125 115.404-16.423 117.511 1.508 4.525 8.939-7.445 33.336-53.699 9.902-18.773 29.854-56.405 44.337-83.627s34.431-64.853 44.328-83.627c9.897-18.773 22.183-41.813 27.301-51.2s16.52-30.507 25.337-46.933l16.031-29.867h-68.244c-37.534 0-68.907 1.152-69.717 2.56z" />
<glyph unicode="&#xe930;" horiz-adv-x="949" d="M49.292 114.534c1.823 7.598 55.545 108.139 57.795 108.164 1.906 0.020 9.328-66.167 10.906-97.257l0.693-13.653-35.261-0.976c-28.558-0.79-35.046-0.083-34.133 3.723z" />
<glyph unicode="&#xe931;" horiz-adv-x="1252" d="M0 448v512h1252v-1024h-1252z" />
<glyph unicode="&#xe932;" horiz-adv-x="1252" d="M769.414-48.545c-77.152 7.34-148.983 32.269-209.914 72.853-59.824 39.846-106.822 92.429-137.353 153.674-16.711 33.523-26.068 61.564-32.289 96.761-2.445 13.834-3.165 40.96-1.554 58.541l0.805 8.784-116.305-95.248c-63.968-52.387-119.097-97.368-122.509-99.959-13.032-9.896-28.143-17.126-44.019-21.061-12.237-3.033-32.395-3.026-43.563 0.016-31.213 8.502-50.632 33.542-50.696 65.369-0.048 24.056 11.615 49.678 31.552 69.315 3.35 3.3 105.166 82.050 226.257 175l220.165 169-126.246 0.537c-141.453 0.602-130.931 0.028-147.536 8.053-15.277 7.383-25.495 20.231-28.866 36.293-3.503 16.696 2.898 35.267 17.51 50.799 13.303 14.141 26.514 21.922 47.647 28.063 6.881 2 10.197 2.048 195.5 2.874 103.675 0.462 215.44 0.962 248.367 1.11l59.867 0.27-79.301 64.5c-85.397 69.458-85.68 69.718-89.952 82.555-2.778 8.347-2.43 20.176 0.835 28.445 6.539 16.557 24.933 31.169 46.805 37.182 10.718 2.947 35.542 3.213 45.378 0.487 15.011-4.16 19.201-7.042 95.048-65.374 39.901-30.687 127.459-97.978 194.574-149.535s126.493-97.432 131.952-101.945c14.416-11.916 42.43-40.359 53.99-54.815 44.755-55.97 71.48-117.005 80.82-184.578 14.247-103.076-18.258-208.989-89.265-290.858-70.442-81.217-170.607-132.632-284.618-146.096-19.074-2.253-73.797-2.848-93.086-1.013zM850.641 141.381c32.734 4.967 58.902 13.195 86.333 27.143 63.391 32.234 109.476 88.213 125.526 152.476 4.511 18.063 5.917 30.19 5.912 51 0 21.037-1.566 34.709-5.945 52.078-21.959 87.090-96.282 155.116-191.634 175.398-35.75 7.604-77.291 7.949-113.334 0.939-36.908-7.178-72.122-22.028-102.288-43.137-55.757-39.015-90.763-95.145-99.336-159.279-1.825-13.651-1.566-42 0.514-56.394 5.25-36.326 19.333-69.862 42.393-100.956 10.311-13.903 34.938-38.36 49.217-48.878 32.7-24.085 67.042-39.325 106.5-47.262 10.458-2.104 16.405-3.001 32.5-4.901 8.227-0.972 53.95 0.302 63.641 1.772zM789.526 229.535c-72.087 11.631-126.844 62.207-137.924 127.392-2.056 12.096-2.066 32.952-0.022 45.148 3.384 20.191 12.916 43.035 25.159 60.291 7.746 10.918 25.615 28.609 37.261 36.889 45.11 32.072 106.47 40.946 160 23.14 59.31-19.73 100.644-66.832 109.041-124.259 1.534-10.488 0.679-36.946-1.506-46.635-4.31-19.109-12.918-38.734-23.686-54-8.233-11.671-25.827-29.213-37.849-37.735-18.737-13.282-43.997-24.059-67.621-28.85-14.144-2.868-48.903-3.632-62.853-1.381z" />
<glyph unicode="&#xe933;" horiz-adv-x="1252" d="M791.5-49.297c-61.424 2.309-123.34 17.702-180 44.751-115.191 54.991-199.94 161.144-220.384 276.046-4.288 24.1-4.734 44.51-1.473 67.392 0.503 3.527 0.361 4.229-0.717 3.563-0.738-0.456-54.687-44.496-119.885-97.867s-121.467-99.029-125.042-101.464c-9.313-6.343-23.063-12.64-34.558-15.824-8.923-2.472-11.532-2.751-25.442-2.717-13.591 0.033-16.487 0.342-23.513 2.508-56.241 17.345-64.528 86.27-16.011 133.163 4.545 4.393 101.738 79.647 224.176 173.575 118.884 91.201 217.884 167.234 220 168.962l3.848 3.142-125.292 0.034c-110.562 0.030-126.197 0.221-132.993 1.624-30.074 6.212-48.899 27.876-46.928 54.003 1.134 15.034 8.205 28.724 21.475 41.579 13.424 13.004 27.223 20.329 48.198 25.585 5.941 1.489 29.203 1.689 254.040 2.191l247.5 0.552-80.117 65.189c-44.065 35.854-81.468 66.904-83.119 69-19.479 24.731-9.029 56.311 24.166 73.028 21.987 11.072 53.216 11.391 74.866 0.763 5.223-2.564 60.569-44.534 201.205-152.577 106.7-81.972 198.725-152.913 204.5-157.647 14.676-12.030 43.645-41.366 55.551-56.256 45.64-57.077 71.94-118.86 81.091-190.5 2.524-19.76 2.533-63.482 0.017-83-12.944-100.398-63.746-188.747-146.042-253.976-71.791-56.903-160.795-89.554-257.617-94.507-18.66-0.955-23.477-0.991-41.5-0.313zM834.696 139.077c93.684 7.881 174.526 60.568 212.395 138.423 15.324 31.505 21.984 59.915 22.034 94 0.039 26.158-2.804 44.326-10.708 68.432-15.859 48.367-48.236 90.146-93.417 120.544-33.052 22.237-71.15 36.75-113.196 43.119-22.851 3.461-62.385 2.92-86.804-1.189-87.433-14.714-161.401-70.143-193.503-145.007-12.078-28.165-17.497-54.823-17.497-86.071 0-48.972 15.186-92.812 46.34-133.783 8.122-10.681 27.918-30.936 39.135-40.044 24.459-19.859 53.878-35.733 85.025-45.88 34.491-11.236 73.267-15.65 110.196-12.543zM797 229.045c-39.361 4.85-73.811 20.66-100.461 46.105-22.741 21.712-37.424 47.58-43.622 76.851-2.885 13.623-3.189 37.9-0.647 51.635 5.53 29.882 18.83 54.606 41.658 77.441 34.395 34.406 79.513 51.542 130.572 49.592 46.641-1.781 87.249-19.722 118.595-52.395 19.653-20.485 32.151-43.979 38.080-71.585 3.122-14.537 3.122-39.84 0-54.377-6.332-29.481-18.824-52.085-41.109-74.388-24.892-24.912-55.744-40.875-90.889-47.026-13.383-2.342-40.416-3.302-52.178-1.853z" />
<glyph unicode="&#xe934;" horiz-adv-x="1252" d="M780.5-48.338c-36.474 2.97-62.539 7.34-92.14 15.447-104.895 28.731-192.318 92.311-248.229 180.529-25.843 40.775-44.227 90.409-50.693 136.862-1.306 9.382-1.535 15.926-1.048 30 0.342 9.9 0.902 20.362 1.243 23.25s0.226 5.244-0.256 5.238c-0.482-0.007-54.202-43.699-119.377-97.094s-121.836-99.353-125.914-102.129c-10.264-6.987-24.217-13.39-35.809-16.432-12.324-3.234-32.678-3.72-43.507-1.038-23.848 5.906-41.573 21.912-48.953 44.205-3.322 10.036-3.327 30.377-0.010 42 5.017 17.578 16.182 35.693 29.939 48.574 3.774 3.534 105.959 82.476 227.077 175.426l220.215 169-127.769 0.538c-70.273 0.296-128.894 0.9-130.269 1.343s-5.962 1.917-10.192 3.275c-14.242 4.572-27.168 15.439-32.814 27.585-15.957 34.332 12.279 75.639 60.831 88.989 7.633 2.099 8.712 2.115 197.175 2.919 104.225 0.445 216.408 0.931 249.296 1.080l59.796 0.271-78.796 64.115c-43.338 35.263-80.747 66.233-83.131 68.82-10.108 10.97-13.752 27.030-9.192 40.51 4.791 14.161 15.395 25.28 31.527 33.058 12.598 6.074 20.124 7.995 34.081 8.7 17.437 0.881 34.424-3.021 46.111-10.592 6.645-4.305 381.595-292.142 396.808-304.616 73.603-60.354 121.522-140.691 136.899-229.514 4.922-28.429 6.507-68.904 3.721-94.981-13.177-123.311-85.666-231.309-198.945-296.4-58.301-33.5-122.605-53.062-192.57-58.583-11.67-0.921-55.24-1.159-65.105-0.356zM854 140.886c97.008 15.069 176.883 78.924 204.859 163.771 26.088 79.121 5.006 164.096-55.845 225.095-66.062 66.224-166.712 92.198-262.52 67.749-72.179-18.419-133.844-67.052-164.537-129.762-34.406-70.297-29.371-150.212 13.594-215.761 39.735-60.621 110.475-103.302 185.449-111.891 5.225-0.599 10.85-1.272 12.5-1.496s14.25-0.272 28-0.105c19.231 0.233 28.115 0.787 38.5 2.4zM797 229.045c-39.361 4.85-73.811 20.66-100.461 46.105-22.741 21.712-37.424 47.58-43.622 76.851-2.885 13.623-3.189 37.9-0.647 51.635 5.53 29.882 18.83 54.606 41.658 77.441 34.395 34.406 79.513 51.542 130.572 49.592 46.641-1.781 87.249-19.722 118.595-52.395 19.653-20.485 32.151-43.979 38.080-71.585 3.122-14.537 3.122-39.84 0-54.377-6.332-29.481-18.824-52.085-41.109-74.388-24.892-24.912-55.744-40.875-90.889-47.026-13.383-2.342-40.416-3.302-52.178-1.853z" />
<glyph unicode="&#xe935;" horiz-adv-x="1252" d="M779.627-47.964c-98.042 6.822-190.409 43.978-261.089 105.028-11.847 10.232-34.417 32.935-44.675 44.936-35.914 42.016-64.17 95.772-76.971 146.435-4.061 16.074-7.828 38.763-8.56 51.565-0.54 9.437 0.83 33.942 2.315 41.4 0.458 2.303 0.269 2.782-0.921 2.325-0.824-0.316-55.147-44.499-120.718-98.185s-121.927-99.448-125.234-101.694c-8.478-5.757-24.844-13.33-34.275-15.86-5.456-1.463-12.338-2.319-21.641-2.691-16.91-0.676-25.348 0.93-38.771 7.382-7.681 3.692-10.808 5.93-17.010 12.173-8.367 8.423-12.623 15.544-16.224 27.149-3.135 10.103-3.142 27.645-0.015 39.5 4.778 18.113 19.198 40.617 33.819 52.777 3.763 3.13 104.908 80.972 224.767 172.983s218.127 167.899 218.374 168.639c0.375 1.126-20.39 1.291-126.425 1.009l-126.874-0.338-8 2.214c-19.149 5.3-32.292 15.252-39.115 29.619-3.083 6.493-3.718 9.017-4.144 16.5-0.934 16.387 4.635 30.483 17.406 44.060 13.125 13.952 27.452 22.449 46.852 27.786l10 2.751 248.328 0.266c196.448 0.21 248.245 0.523 247.93 1.5-0.219 0.679-35.916 30.11-79.328 65.403-51.97 42.251-80.555 66.146-83.686 69.958-25.68 31.26 2.616 73.627 53.132 79.554 16.695 1.959 36.569-1.855 49.124-9.425 5.884-3.548 385.716-295.008 402.5-308.853 14.331-11.822 42.372-40.302 54.055-54.901 48.161-60.181 75.73-127.433 82.396-201 1.333-14.712 1.341-47.16 0.014-62-10.164-113.719-75.162-218.751-176.558-285.307-60.276-39.565-127.41-63.179-202.407-71.198-17.611-1.883-60.745-2.686-78.373-1.46zM830 138.037c38.231 2.683 70.151 11.141 103.5 27.425 75.366 36.801 125.274 103.52 135.047 180.537 2.085 16.431 1.566 46.182-1.063 61-8.799 49.586-32.146 92.909-68.701 127.489-47.212 44.659-109.547 69.97-177.783 72.189-75.447 2.454-146.046-24-197.872-74.143-36.938-35.739-59.462-78.291-67.771-128.035-2.555-15.296-2.588-50.53-0.061-65.588 8.249-49.154 30.501-91.059 67.465-127.047 53.89-52.466 129.223-79.303 207.239-73.828zM797 229.045c-39.361 4.85-73.811 20.66-100.461 46.105-22.741 21.712-37.424 47.58-43.622 76.851-2.885 13.623-3.189 37.9-0.647 51.635 5.53 29.882 18.83 54.606 41.658 77.441 34.395 34.406 79.513 51.542 130.572 49.592 46.641-1.781 87.249-19.722 118.595-52.395 19.653-20.485 32.151-43.979 38.080-71.585 3.122-14.537 3.122-39.84 0-54.377-6.332-29.481-18.824-52.085-41.109-74.388-24.892-24.912-55.744-40.875-90.889-47.026-13.383-2.342-40.416-3.302-52.178-1.853z" />
<glyph unicode="&#xe936;" horiz-adv-x="1252" d="M779.627-47.964c-98.042 6.822-190.409 43.978-261.089 105.028-11.847 10.232-34.417 32.935-44.675 44.936-35.914 42.016-64.17 95.772-76.971 146.435-4.061 16.074-7.828 38.763-8.56 51.565-0.54 9.437 0.83 33.942 2.315 41.4 0.458 2.303 0.269 2.782-0.921 2.325-0.824-0.316-55.147-44.499-120.718-98.185s-121.927-99.448-125.234-101.694c-8.478-5.757-24.844-13.33-34.275-15.86-5.456-1.463-12.338-2.319-21.641-2.691-16.91-0.676-25.348 0.93-38.771 7.382-7.681 3.692-10.808 5.93-17.010 12.173-8.367 8.423-12.623 15.544-16.224 27.149-3.135 10.103-3.142 27.645-0.015 39.5 4.778 18.113 19.198 40.617 33.819 52.777 3.763 3.13 104.908 80.972 224.767 172.983s218.127 167.899 218.374 168.639c0.375 1.126-20.39 1.291-126.425 1.009l-126.874-0.338-8 2.214c-19.149 5.3-32.292 15.252-39.115 29.619-3.083 6.493-3.718 9.017-4.144 16.5-0.934 16.387 4.635 30.483 17.406 44.060 13.125 13.952 27.452 22.449 46.852 27.786l10 2.751 248.328 0.266c196.448 0.21 248.245 0.523 247.93 1.5-0.219 0.679-35.916 30.11-79.328 65.403-51.97 42.251-80.555 66.146-83.686 69.958-25.68 31.26 2.616 73.627 53.132 79.554 16.695 1.959 36.569-1.855 49.124-9.425 5.884-3.548 385.716-295.008 402.5-308.853 14.331-11.822 42.372-40.302 54.055-54.901 48.161-60.181 75.73-127.433 82.396-201 1.333-14.712 1.341-47.16 0.014-62-10.164-113.719-75.162-218.751-176.558-285.307-60.276-39.565-127.41-63.179-202.407-71.198-17.611-1.883-60.745-2.686-78.373-1.46zM830 138.037c38.231 2.683 70.151 11.141 103.5 27.425 75.366 36.801 125.274 103.52 135.047 180.537 2.085 16.431 1.566 46.182-1.063 61-8.799 49.586-32.146 92.909-68.701 127.489-47.212 44.659-109.547 69.97-177.783 72.189-75.447 2.454-146.046-24-197.872-74.143-36.938-35.739-59.462-78.291-67.771-128.035-2.555-15.296-2.588-50.53-0.061-65.588 8.249-49.154 30.501-91.059 67.465-127.047 53.89-52.466 129.223-79.303 207.239-73.828zM796 229.714c-9.029 1.017-28.62 5.569-37.962 8.821-54.365 18.923-93.435 61.629-104.723 114.465-2.558 11.975-2.558 41.025 0 53 6.336 29.659 18.822 52.296 41.115 74.54 17.791 17.752 33.048 27.919 55.259 36.826 25.35 10.165 52.442 14.425 79.673 12.529 31.942-2.224 60.561-11.825 85.744-28.767 35.236-23.705 57.263-55.923 66.064-96.628 1.786-8.26 1.751-40.858-0.053-50-3.538-17.926-11.599-37.339-22.216-53.5-8.648-13.163-28.941-33.36-42.589-42.386-30.933-20.457-62.867-29.822-100.441-29.454-9.004 0.088-17.947 0.337-19.872 0.554z" />
<glyph unicode="&#xe937;" horiz-adv-x="1252" d="M772-46.906c-143.764 12.39-269.142 88.653-337.474 205.274-13.998 23.891-28.142 57.102-35.075 82.36-9.779 35.629-12.363 60.665-9.414 91.234 0.645 6.689 0.922 12.412 0.616 12.719s-53.697-42.953-118.645-96.132c-64.948-53.179-120.897-98.816-124.331-101.415-7.56-5.722-23.793-14.13-32.677-16.924-12.527-3.94-17.446-4.68-31-4.662-15.832 0.021-22.354 1.439-35 7.61-6.738 3.288-10.166 5.826-16.537 12.245-9.184 9.254-13.556 16.729-16.488 28.193-2.67 10.441-2.64 25.071 0.075 36.404 4.143 17.291 16.311 37.667 30.216 50.598 3.491 3.246 105.659 82.127 227.040 175.29s220.693 169.764 220.693 170.225c0 0.46-57.938 0.967-128.75 1.127l-128.75 0.29-7.493 2.306c-28.984 8.919-44.91 32.063-39.682 57.664 4.364 21.37 20.129 39.754 44.174 51.514 19.944 9.754 14.523 9.247 107.5 10.046 44.825 0.385 157.438 0.754 250.25 0.82 96.117 0.068 168.75 0.498 168.75 0.998 0 0.483-35.736 29.957-79.413 65.498s-81.246 66.703-83.487 69.248c-2.241 2.545-5.317 7.159-6.837 10.252-2.509 5.107-2.763 6.635-2.763 16.624 0 10.344 0.19 11.388 3.191 17.5 8.4 17.109 26.861 29.815 50.177 34.535 6.31 1.277 11.476 1.572 21 1.199 14.485-0.568 21.549-2.215 32.144-7.492 5.511-2.745 59.059-43.349 201-152.412 106.418-81.769 198.438-152.778 204.488-157.798 66.184-54.918 112.639-130.134 130.018-210.515 16.956-78.427 7.591-158.408-27.084-231.296-51.061-107.333-153.271-188.837-275.934-220.034-27.332-6.951-49.686-10.673-79-13.151-13.912-1.176-61.602-1.139-75.5 0.059zM853.237 139.951c86.261 13.142 159.167 64.255 194.768 136.549 15.534 31.544 22.422 61.278 22.357 96.5-0.065 34.83-6.88 63.941-22.357 95.5-37.202 75.856-115.391 127.814-206.977 137.537-13.348 1.417-46.815 1.415-58.528-0.003-55.654-6.74-101.592-25.263-141.411-57.020-48.998-39.077-79.502-92.111-87.148-151.514-1.747-13.571-1.506-40.965 0.484-54.95 9.157-64.37 45.996-121.287 103.575-160.026 34.321-23.091 76.77-38.719 118-43.444 5.225-0.599 11.075-1.27 13-1.492s14.075-0.251 27-0.066c17.385 0.249 27.075 0.882 37.237 2.43zM796 229.714c-9.029 1.017-28.62 5.569-37.962 8.821-54.365 18.923-93.435 61.629-104.723 114.465-2.558 11.975-2.558 41.025 0 53 6.336 29.659 18.822 52.296 41.115 74.54 17.791 17.752 33.048 27.919 55.259 36.826 25.35 10.165 52.442 14.425 79.673 12.529 31.942-2.224 60.561-11.825 85.744-28.767 35.236-23.705 57.263-55.923 66.064-96.628 1.786-8.26 1.751-40.858-0.053-50-3.538-17.926-11.599-37.339-22.216-53.5-8.648-13.163-28.941-33.36-42.589-42.386-30.933-20.457-62.867-29.822-100.441-29.454-9.004 0.088-17.947 0.337-19.872 0.554z" />
<glyph unicode="&#xe938;" horiz-adv-x="1252" d="M772-46.906c-143.764 12.39-269.142 88.653-337.474 205.274-13.998 23.891-28.142 57.102-35.075 82.36-9.779 35.629-12.363 60.665-9.414 91.234 0.645 6.689 0.922 12.412 0.616 12.719s-53.697-42.953-118.645-96.132c-64.948-53.179-120.897-98.816-124.331-101.415-7.56-5.722-23.793-14.13-32.677-16.924-12.527-3.94-17.446-4.68-31-4.662-15.832 0.021-22.354 1.439-35 7.61-6.738 3.288-10.166 5.826-16.537 12.245-9.184 9.254-13.556 16.729-16.488 28.193-2.67 10.441-2.64 25.071 0.075 36.404 4.143 17.291 16.311 37.667 30.216 50.598 3.491 3.246 105.659 82.127 227.040 175.29s220.693 169.764 220.693 170.225c0 0.46-57.938 0.967-128.75 1.127l-128.75 0.29-7.493 2.306c-28.984 8.919-44.91 32.063-39.682 57.664 4.364 21.37 20.129 39.754 44.174 51.514 19.944 9.754 14.523 9.247 107.5 10.046 44.825 0.385 157.438 0.754 250.25 0.82 96.117 0.068 168.75 0.498 168.75 0.998 0 0.483-35.736 29.957-79.413 65.498s-81.246 66.703-83.487 69.248c-2.241 2.545-5.317 7.159-6.837 10.252-2.509 5.107-2.763 6.635-2.763 16.624 0 10.344 0.19 11.388 3.191 17.5 8.4 17.109 26.861 29.815 50.177 34.535 6.31 1.277 11.476 1.572 21 1.199 14.485-0.568 21.549-2.215 32.144-7.492 5.511-2.745 59.059-43.349 201-152.412 106.418-81.769 198.438-152.778 204.488-157.798 66.184-54.918 112.639-130.134 130.018-210.515 16.956-78.427 7.591-158.408-27.084-231.296-51.061-107.333-153.271-188.837-275.934-220.034-27.332-6.951-49.686-10.673-79-13.151-13.912-1.176-61.602-1.139-75.5 0.059zM853.237 139.951c86.261 13.142 159.167 64.255 194.768 136.549 15.534 31.544 22.422 61.278 22.357 96.5-0.065 34.83-6.88 63.941-22.357 95.5-37.202 75.856-115.391 127.814-206.977 137.537-13.348 1.417-46.815 1.415-58.528-0.003-55.654-6.74-101.592-25.263-141.411-57.020-48.998-39.077-79.502-92.111-87.148-151.514-1.747-13.571-1.506-40.965 0.484-54.95 9.157-64.37 45.996-121.287 103.575-160.026 34.321-23.091 76.77-38.719 118-43.444 5.225-0.599 11.075-1.27 13-1.492s14.075-0.251 27-0.066c17.385 0.249 27.075 0.882 37.237 2.43zM801.5 229.656c-12.735 1.514-20.323 2.814-28.683 4.913-62.133 15.602-108.998 62.991-119.532 120.872-2.228 12.241-2.19 35.995 0.076 48.317 17.623 95.807 128.017 151.581 227.139 114.758 64.061-23.799 106.030-84.035 102.083-146.516-1.584-25.071-8.83-47.138-22.33-68-26.879-41.539-71.74-68.189-124.464-73.941-9.089-0.992-27.518-1.208-34.289-0.403z" />
<glyph unicode="&#xe939;" horiz-adv-x="1252" d="M783-47.296c-89.050 5.41-176.73 37.369-244.2 89.009-32.537 24.904-64.633 58.223-87.004 90.321-19.614 28.142-37.018 62.69-47.856 94.996-7.436 22.164-13.655 53.402-14.628 73.469-0.523 10.787 0.92 36.236 2.404 42.405 0.486 2.019 0.263 2.323-1.382 1.893-1.078-0.282-55.41-44.253-120.737-97.714s-120.649-98.564-122.937-100.231c-11.991-8.732-29.218-16.467-43.16-19.381-11.463-2.396-29.746-2.199-39.787 0.428-38.254 10.008-57.679 45.97-46.205 85.539 4.884 16.843 14.417 32.343 28.142 45.755 3.767 3.681 106.299 83.025 227.849 176.32s221 170.158 221 170.807c0 0.902-28.474 1.093-121 0.811-127.26-0.388-133.791-0.209-146.812 4.035-33.964 11.070-47.192 42.247-30.998 73.063 11.104 21.131 37.069 38.378 65.191 43.303 7.213 1.263 42.47 1.47 253 1.483 151.481 0.009 245.187 0.374 246.111 0.958 0.974 0.616 1.148 1.268 0.5 1.879-0.545 0.515-35.192 28.734-76.992 62.71s-77.705 63.161-79.788 64.856c-9.859 8.021-16.712 21.592-16.712 33.098 0 6.763 2.898 16.092 6.971 22.439 4.002 6.236 13.952 15.511 21.379 19.929 12.621 7.507 32.649 11.931 48.65 10.745 21.967-1.627 29.625-5.473 64.5-32.388 14.85-11.461 101.925-78.369 193.5-148.686s171.675-132.144 178-137.395c14.533-12.066 38.9-36.402 50.547-50.485 46.465-56.18 74.11-118.773 83.995-190.175 2.243-16.2 3.086-59.23 1.502-76.688-5.794-63.886-29.273-126.718-67.292-180.084-19.737-27.705-50.107-59.791-76.753-81.090-70.037-55.984-156.671-89.116-250-95.609-13.39-0.932-46.052-1.111-59-0.324zM841 138.117c95.891 9.23 180.892 70.094 214.345 153.479 22.926 57.145 20.47 121.186-6.783 176.904-52.386 107.1-184.752 162.734-309.196 129.957-48.063-12.659-88.3-36.032-122.378-71.087-18.936-19.479-31.168-36.701-42.524-59.871-29.833-60.873-29.804-131.196 0.082-191.352 12.046-24.247 25.718-43.249 44.97-62.502 31.149-31.149 69.714-53.758 112.564-65.991 35.797-10.22 70.381-13.248 108.92-9.538zM801.5 229.656c-12.735 1.514-20.323 2.814-28.683 4.913-62.133 15.602-108.998 62.991-119.532 120.872-2.228 12.241-2.19 35.995 0.076 48.317 17.623 95.807 128.017 151.581 227.139 114.758 64.061-23.799 106.030-84.035 102.083-146.516-1.584-25.071-8.83-47.138-22.33-68-26.879-41.539-71.74-68.189-124.464-73.941-9.089-0.992-27.518-1.208-34.289-0.403z" />
<glyph unicode="&#xe93a;" horiz-adv-x="1252" d="M783-46.972c-50.568 3.319-99.804 14.389-144.394 32.464-85.203 34.538-155.242 93.327-200.33 168.151-23.49 38.982-38.125 77.854-45.92 121.966-3.048 17.25-3.623 39.399-1.499 57.784 0.775 6.714 0.901 11.249 0.328 11.822s-3.185-0.902-6.808-3.846c-3.233-2.627-56.728-46.405-118.878-97.284s-116.154-94.776-120.008-97.547c-20.267-14.57-41.619-21.227-64.992-20.263-21.1 0.87-34.143 6.163-47.118 19.119-13.268 13.248-18.703 26.511-18.692 45.606 0.014 23.124 10.217 46.57 28.487 65.458 5.174 5.349 72.619 57.684 229.823 178.332 122.375 93.918 222.5 171.199 222.5 171.735 0 0.625-46.622 1.165-130 1.505-121.356 0.495-130.394 0.65-135.93 2.328-14.87 4.507-29.145 14.933-34.884 25.478-14.462 26.572-0.033 60.741 33.815 80.076 9.274 5.298 25.857 10.68 37 12.008 6.177 0.736 85.309 1.074 252.25 1.076 208.975 0.002 243.25 0.202 243.25 1.417 0 0.778-34.763 29.676-77.25 64.219s-79.848 65.26-83.023 68.26c-10.103 9.547-15.249 23.83-12.882 35.757 0.638 3.217 2.519 8.624 4.179 12.014 15.742 32.155 68.924 45.211 104.224 25.586 6.95-3.864 382.477-291.789 404.136-309.86 64.006-53.404 109.997-127.447 127.575-205.391 6.736-29.868 8.542-46.794 8.537-80 0-28.964-0.867-39.539-5.137-63-23.873-131.181-119.665-242.561-253.268-294.482-40.438-15.715-82.405-25.521-126.091-29.461-16.711-1.507-53.379-2.054-69-1.029zM832.605 137.026c48.354 3.849 92.893 18.813 130.42 43.818 17.249 11.493 27.279 19.622 40.393 32.737 37.515 37.515 60.339 83.273 66.534 133.392 1.535 12.419 1.281 40.135-0.493 53.725-9.579 73.384-57.359 139.134-127.777 175.832-40.621 21.169-82.775 31.434-129.183 31.455-46.318 0.021-87.067-9.59-127.611-30.098-24.929-12.61-46.137-28.052-66.407-48.352-43.204-43.268-66.483-98.605-66.483-158.035 0-72.002 34.954-138.043 97.368-183.964 50.353-37.047 118.023-55.701 183.237-50.51zM801.5 229.656c-12.735 1.514-20.323 2.814-28.683 4.913-62.133 15.602-108.998 62.991-119.532 120.872-2.228 12.241-2.19 35.995 0.076 48.317 17.623 95.807 128.017 151.581 227.139 114.758 64.061-23.799 106.030-84.035 102.083-146.516-1.584-25.071-8.83-47.138-22.33-68-26.879-41.539-71.74-68.189-124.464-73.941-9.089-0.992-27.518-1.208-34.289-0.403z" />
<glyph unicode="&#xe93b;" horiz-adv-x="1252" d="M783-46.972c-50.568 3.319-99.804 14.389-144.394 32.464-85.203 34.538-155.242 93.327-200.33 168.151-23.49 38.982-38.125 77.854-45.92 121.966-3.048 17.25-3.623 39.399-1.499 57.784 0.775 6.714 0.901 11.249 0.328 11.822s-3.185-0.902-6.808-3.846c-3.233-2.627-56.728-46.405-118.878-97.284s-116.154-94.776-120.008-97.547c-20.267-14.57-41.619-21.227-64.992-20.263-21.1 0.87-34.143 6.163-47.118 19.119-13.268 13.248-18.703 26.511-18.692 45.606 0.014 23.124 10.217 46.57 28.487 65.458 5.174 5.349 72.619 57.684 229.823 178.332 122.375 93.918 222.5 171.199 222.5 171.735 0 0.625-46.622 1.165-130 1.505-121.356 0.495-130.394 0.65-135.93 2.328-14.87 4.507-29.145 14.933-34.884 25.478-14.462 26.572-0.033 60.741 33.815 80.076 9.274 5.298 25.857 10.68 37 12.008 6.177 0.736 85.309 1.074 252.25 1.076 208.975 0.002 243.25 0.202 243.25 1.417 0 0.778-34.763 29.676-77.25 64.219s-79.848 65.26-83.023 68.26c-10.103 9.547-15.249 23.83-12.882 35.757 0.638 3.217 2.519 8.624 4.179 12.014 15.742 32.155 68.924 45.211 104.224 25.586 6.95-3.864 382.477-291.789 404.136-309.86 64.006-53.404 109.997-127.447 127.575-205.391 6.736-29.868 8.542-46.794 8.537-80 0-28.964-0.867-39.539-5.137-63-23.873-131.181-119.665-242.561-253.268-294.482-40.438-15.715-82.405-25.521-126.091-29.461-16.711-1.507-53.379-2.054-69-1.029zM832.605 137.026c48.354 3.849 92.893 18.813 130.42 43.818 17.249 11.493 27.279 19.622 40.393 32.737 37.515 37.515 60.339 83.273 66.534 133.392 1.535 12.419 1.281 40.135-0.493 53.725-9.579 73.384-57.359 139.134-127.777 175.832-40.621 21.169-82.775 31.434-129.183 31.455-46.318 0.021-87.067-9.59-127.611-30.098-24.929-12.61-46.137-28.052-66.407-48.352-43.204-43.268-66.483-98.605-66.483-158.035 0-72.002 34.954-138.043 97.368-183.964 50.353-37.047 118.023-55.701 183.237-50.51zM793 231.019c-39.104 5.31-76.119 24.062-101.91 51.628-48.755 52.111-52.329 128.081-8.646 183.783 20.075 25.597 51.568 46.656 83.556 55.87 89.236 25.706 183.899-20.042 209.8-101.39 8.172-25.668 8.358-56.151 0.495-81.41-14.785-47.496-53.433-84.997-104.435-101.334-18.841-6.035-27.379-7.327-50.859-7.693-11.825-0.185-24.425 0.062-28 0.547z" />
<glyph unicode="&#xe93c;" horiz-adv-x="1252" d="M778.5-46.36c-1.65 0.187-8.625 0.834-15.5 1.438-37.643 3.304-82.877 14.249-121.5 29.398-17.009 6.672-49.626 22.851-65.5 32.491-97.226 59.042-165.633 154.949-183.007 256.574-3.977 23.261-4.202 34-1.37 65.25 0.594 6.552 0.482 7.371-0.967 7.060-0.901-0.193-55.305-44.278-120.897-97.967s-122.183-99.647-125.758-102.131c-19.737-13.713-43.226-20.753-64.901-19.452-19.339 1.161-34.112 7.44-46.099 19.594-12.679 12.855-18.006 26.33-17.993 45.514 0.010 13.684 2.654 24.321 9.47 38.090 6.63 13.395 15.817 25.144 26.866 34.36 4.486 3.742 28.632 22.498 53.657 41.681s88.925 68.211 142 108.954c53.075 40.742 129.575 99.453 170 130.467s74.713 57.324 76.195 58.464c1.482 1.141 2.72 2.625 2.75 3.299 0.043 0.959-28.117 1.292-129.695 1.533-144.774 0.344-133.109-0.234-149.059 7.383-16.549 7.904-28.191 25.418-28.191 42.409 0 6.039 3.206 18.449 6.388 24.729 6.861 13.54 21.622 27.189 38.112 35.242 18.585 9.075 19.358 9.182 72.5 10.031 25.575 0.408 138.386 0.789 250.691 0.845s204.413 0.462 204.684 0.9c0.271 0.439 0.185 1.251-0.191 1.804s-36.804 30.373-80.95 66.266c-56.819 46.196-81.44 66.815-84.287 70.586-16.035 21.238-7.767 49.984 18.802 65.365 13.241 7.666 26.962 11.181 43.644 11.181 16.92 0 30.524-3.684 41.923-11.354 8.635-5.81 383.584-293.882 397.685-305.54 46.666-38.583 84.294-87.865 107.955-141.393 14.437-32.661 24.283-68.928 28.699-105.713 2.424-20.192 2.422-60.198 0-80-10.245-83.647-47.589-159.635-108.649-221.080-71.932-72.386-169.982-116.868-277.502-125.892-10.917-0.916-62.813-1.204-70-0.388zM849.954 138.49c88.837 12.336 165.006 65.811 200.524 140.778 14.463 30.528 20.877 59.408 20.816 93.731-0.062 34.987-6.753 63.706-22.248 95.5-28.651 58.788-83.172 104.675-150.045 126.286-27.544 8.901-48.058 12.227-79.727 12.925-25.271 0.557-37.607-0.233-57.177-3.664-99.718-17.481-180.656-88.213-203.585-177.914-13.094-51.222-7.497-104.509 15.873-151.133 11.381-22.704 23.998-40.301 42.563-59.361 43.694-44.859 101.352-71.905 167.553-78.597 12.887-1.303 51.854-0.441 65.454 1.448zM793 231.019c-39.104 5.31-76.119 24.062-101.91 51.628-48.755 52.111-52.329 128.081-8.646 183.783 20.075 25.597 51.568 46.656 83.556 55.87 89.236 25.706 183.899-20.042 209.8-101.39 8.172-25.668 8.358-56.151 0.495-81.41-14.785-47.496-53.433-84.997-104.435-101.334-18.841-6.035-27.379-7.327-50.859-7.693-11.825-0.185-24.425 0.062-28 0.547z" />
<glyph unicode="&#xe93d;" horiz-adv-x="1252" d="M774.5-45.924c-93.592 7.891-178.005 41.376-248.302 98.495-14.494 11.777-45.377 43.112-57.585 58.429-35.943 45.094-60.631 95.253-72.091 146.468-6.37 28.47-7.837 49.946-5.123 75.032 0.714 6.6 0.931 12.413 0.482 12.917-0.495 0.557-1.556 0.557-2.697 0-1.035-0.505-55.739-45.017-121.565-98.917-68.624-56.191-123.548-100.437-128.741-103.712-31.701-19.993-70.716-21.824-96.57-4.532-9.255 6.19-15.389 13.186-20.378 23.243-5.426 10.937-7.264 20.27-6.6 33.5 1.183 23.556 12.202 45.932 31.775 64.523 4.067 3.863 106.748 83.261 228.18 176.442 147.335 113.056 220.687 169.933 220.489 170.965-0.267 1.385-13.668 1.547-128.786 1.558l-128.489 0.012-7.8 2.222c-28.177 8.026-44.132 29.039-40.661 53.549 1.985 14.015 7.528 24.345 19.44 36.229 12.322 12.293 24.774 19.42 43.024 24.623l7.997 2.28 223 0.661c302.652 0.897 278.5 0.703 278.5 2.245 0 0.72-35.444 30.152-78.764 65.404s-81.145 66.612-84.054 69.688c-2.909 3.076-6.503 8.182-7.986 11.346-2.368 5.052-2.696 6.977-2.696 15.805 0 9.605 0.167 10.39 3.761 17.661 7.138 14.443 23.119 26.259 43.239 31.97 6.654 1.889 10.439 2.271 22.5 2.271 16.575 0 25.398-1.914 36.955-8.017 6.699-3.537 385.304-293.702 405.694-310.926 62.601-52.88 105.806-120.879 124.858-196.512 7.535-29.912 10.726-55.844 10.766-87.5 0.031-24.028-1.129-38.451-4.842-60.193-17.124-100.269-77.942-191.896-167.431-252.249-59.908-40.403-127.072-64.766-203-73.637-16.108-1.882-70.167-2.723-86.5-1.346zM852 138.446c41.865 6.623 79.905 21.009 112 42.358 101.557 67.551 136.195 188.876 83.35 291.943-18.868 36.8-50.195 70.365-88.35 94.661-11.252 7.165-39.942 20.891-53.334 25.517-31.766 10.972-59.291 15.486-94.166 15.445-28.876-0.034-50.038-2.819-75.738-9.964-88.218-24.529-156.711-91.084-177.693-172.665-4.916-19.116-6.462-32.058-6.477-54.241-0.014-20.832 1.35-33.143 5.541-50 10.406-41.852 30.676-77.38 61.915-108.521 43.8-43.662 100.468-69.655 166.451-76.351 10.242-1.039 56.419 0.223 66.5 1.818zM793 231.019c-39.104 5.31-76.119 24.062-101.91 51.628-48.755 52.111-52.329 128.081-8.646 183.783 20.075 25.597 51.568 46.656 83.556 55.87 89.236 25.706 183.899-20.042 209.8-101.39 8.172-25.668 8.358-56.151 0.495-81.41-14.785-47.496-53.433-84.997-104.435-101.334-18.841-6.035-27.379-7.327-50.859-7.693-11.825-0.185-24.425 0.062-28 0.547z" />
<glyph unicode="&#xe93e;" horiz-adv-x="1252" d="M779-45.947c-47.708 3.493-92.632 13.606-136 30.614-80.939 31.743-148.548 85.409-194.43 154.333-32.334 48.572-51.451 99.32-57.634 153-1.258 10.92-0.781 29.804 1.138 45.114 1.247 9.946 0.474 11.331-4.36 7.812-1.834-1.335-56.407-45.878-121.274-98.986s-120.772-98.476-124.234-100.817c-8.585-5.807-20.908-11.524-31.706-14.711-13.067-3.856-33.543-4.547-45.556-1.537-12.219 3.061-21.883 8.16-30.029 15.844-8.17 7.707-12.749 14.851-16.529 25.791-2.456 7.107-2.757 9.372-2.718 20.49 0.033 9.591 0.547 14.362 2.21 20.5 4.522 16.692 16.175 35.853 29.057 47.779 3.288 3.044 104.661 81.286 225.272 173.87s220.602 169.503 222.203 170.93c1.875 1.672 2.627 3.052 2.115 3.88-0.642 1.039-25.34 1.22-128.91 0.947l-128.115-0.338-7.842 2.198c-18.002 5.046-30.738 14.546-37.3 27.822-3.191 6.457-3.694 8.501-4.127 16.773-0.408 7.798-0.113 10.687 1.711 16.779 7.318 24.436 30.163 44.192 60.938 52.7l9.619 2.659 249.139 0.264c211.779 0.224 249.313 0.473 250.298 1.66 1.423 1.715 5.422-1.66-85.936 72.541-38.775 31.493-72.663 59.347-75.307 61.898-6.211 5.992-11.498 16.592-12.323 24.701-1.278 12.576 3.43 24.225 14.13 34.96 16.123 16.176 44.48 24.411 69.207 20.098 11.054-1.928 21.007-5.513 27.793-10.012 6.369-4.222 382.435-293.018 396.5-304.489 14.903-12.153 41.342-38.391 53.848-53.437 36.565-43.995 62.694-95.048 75.651-147.817 7.322-29.821 10.495-56.079 10.495-86.866 0-22.835-1.101-36.693-4.606-58-16.587-100.822-76.713-192.020-167.034-253.354-61.573-41.812-132.206-66.873-210.354-74.633-14.802-1.47-60.114-2.050-75-0.96zM828.823 136.008c59.756 4.080 110.356 23.334 155.188 59.050 39.762 31.677 69.598 77.035 81.464 123.843 5.038 19.876 5.942 28.029 5.942 53.6 0 26.343-0.966 34.562-6.523 55.5-17.576 66.228-65.742 122.286-132.394 154.086-70.729 33.745-156.69 35.732-229.321 5.303-32.101-13.449-59.844-32.002-84.256-56.345-19.751-19.695-33.273-38.53-45.476-63.345-45.176-91.865-21.319-198.525 60.052-268.483 43.742-37.607 102.006-60.253 163.5-63.551 12.226-0.656 18.133-0.592 31.823 0.343zM793 231.019c-39.104 5.31-76.119 24.062-101.91 51.628-48.755 52.111-52.329 128.081-8.646 183.783 20.075 25.597 51.568 46.656 83.556 55.87 89.236 25.706 183.899-20.042 209.8-101.39 8.172-25.668 8.358-56.151 0.495-81.41-14.785-47.496-53.433-84.997-104.435-101.334-18.841-6.035-27.379-7.327-50.859-7.693-11.825-0.185-24.425 0.062-28 0.547z" />
<glyph unicode="&#xe93f;" horiz-adv-x="1252" d="M783-45.896c-49.357 2.963-95.512 13.235-142 31.604-130.496 51.563-226.137 163.585-247.541 289.938-3.451 20.369-3.942 32.843-2.053 52.119 1.961 20.004 1.967 19.239-0.156 19.219-0.962-0.009-56.176-44.581-122.696-99.050s-123.671-100.833-127-103.031c-22.751-15.021-50.766-21.17-74.346-16.317-34.386 7.077-55.921 37.028-51.231 71.252 3.038 22.164 13.296 41.806 30.5 58.401 4.491 4.332 105.317 82.371 229.023 177.264 144.215 110.625 221.111 170.215 221.32 171.511 0.317 1.972-0.544 1.986-127.292 1.986-142.775 0-135.824-0.328-151.369 7.139-32.689 15.702-37.6 53.343-10.664 81.736 13.37 14.093 28.263 22.48 49.505 27.878 5.928 1.506 28.452 1.7 256 2.199 233.872 0.513 249.5 0.654 249.5 2.246 0 1.042-29.773 25.893-77 64.271-42.35 34.414-79.739 65.15-83.088 68.301-13.48 12.687-17.354 27.62-11.337 43.702 14.039 37.524 77.905 50.597 113.653 23.265 99.722-76.245 384.949-295.756 393.259-302.652 62.213-51.627 106.841-120.518 126.054-194.585 8.818-33.995 11.463-55.259 11.444-92-0.019-35.829-2.638-57.064-10.979-89-20.367-77.981-67.345-149.044-133.602-202.098-84.381-67.567-195.734-102.031-307.904-95.298zM833.050 136.067c36.975 2.934 69.072 11.608 101.45 27.415 27.060 13.211 48.134 28.165 69.065 49.008 35.376 35.227 56.622 74.758 65.573 122.010 3.023 15.958 3.695 47.444 1.399 65.559-13.766 108.629-108.589 194.88-228.038 207.424-86.201 9.052-169.582-20.185-227.004-79.597-42.162-43.624-64.496-97.763-64.496-156.345 0-48.458 15.237-93.358 45.288-133.451 9.255-12.347 29.45-33.106 42.212-43.388 53.602-43.191 123.541-64.269 194.55-58.634zM793 231.019c-39.104 5.31-76.119 24.062-101.91 51.628-48.755 52.111-52.329 128.081-8.646 183.783 20.075 25.597 51.568 46.656 83.556 55.87 89.236 25.706 183.899-20.042 209.8-101.39 8.172-25.668 8.358-56.151 0.495-81.41-14.785-47.496-53.433-84.997-104.435-101.334-18.841-6.035-27.379-7.327-50.859-7.693-11.825-0.185-24.425 0.062-28 0.547z" />
<glyph unicode="&#xe940;" horiz-adv-x="1252" d="M778.5-45.369c-96.191 7.54-182.334 41.42-252.364 99.255-15.549 12.841-39.567 36.754-52.345 52.114-44.266 53.213-72.54 115.249-81.355 178.5-1.359 9.75-1.53 15.562-0.916 31 1.229 30.869 1.208 32.016-0.59 31.891-0.863-0.060-56.22-44.849-123.014-99.532s-124.901-101.578-129.126-104.211c-31.675-19.742-70.319-21.836-95.448-5.171-11.4 7.561-20.116 19.264-24.967 33.523-2.575 7.571-2.651 29.694-0.133 38.802 4.847 17.527 13.468 32.010 27.214 45.715 6.48 6.46 40.652 33.246 120.543 94.486 200.581 153.754 318.378 244.183 325.304 249.726 3.742 2.995 6.63 5.969 6.417 6.608-0.291 0.873-32.838 1.292-130.304 1.678-120.353 0.477-130.359 0.645-135.917 2.282-28.719 8.455-44.28 29.112-40.585 53.875 1.715 11.493 8.299 23.906 17.875 33.703 11.785 12.057 23.934 19.222 42.209 24.898l8.5 2.64 152.5 0.663c83.875 0.365 197.194 0.722 251.82 0.794l99.32 0.13-0.32 2.177c-0.221 1.506-24.521 21.867-78.82 66.044-43.175 35.127-80.661 65.984-83.302 68.573s-6.241 7.624-8 11.191c-2.953 5.987-3.198 7.252-3.198 16.5 0 9.22 0.257 10.559 3.242 16.861 6.076 12.828 20.324 24.395 37.064 30.088 21.998 7.482 48.229 5.636 66.447-4.677 5.030-2.847 372.444-284.36 396.202-303.57 62.625-50.637 107.358-116.352 128.563-188.87 18.157-62.093 19.454-125.5 3.843-187.817-22.649-90.409-80.956-171.058-163.629-226.328-58.139-38.868-125.020-62.999-198.731-71.704-13.363-1.578-71.175-2.842-84-1.837zM850.561 137.37c33.573 5.098 62.013 14.090 89.329 28.244 44.296 22.952 81.797 58.699 104.787 99.886 18.829 33.731 27.743 67.963 27.735 106.5-0.010 22.363-1.608 35.253-6.912 55.59-22.696 87.024-98.433 155.586-194.206 175.807-37.354 7.887-79.12 8.065-116.295 0.496-73.28-14.92-136.472-58.239-172.705-118.394-11.59-19.243-19.348-37.678-24.79-58.91-5.043-19.678-6.847-34.189-6.847-55.090 0-35.156 6.679-63.902 22.304-96 21.142-43.429 56.583-80.135 102.648-106.313 29.446-16.733 68.733-28.96 106.389-33.109 12.452-1.372 56.479-0.542 68.561 1.293zM793 231.019c-39.104 5.31-76.119 24.062-101.91 51.628-48.755 52.111-52.329 128.081-8.646 183.783 20.075 25.597 51.568 46.656 83.556 55.87 89.236 25.706 183.899-20.042 209.8-101.39 8.172-25.668 8.358-56.151 0.495-81.41-14.785-47.496-53.433-84.997-104.435-101.334-18.841-6.035-27.379-7.327-50.859-7.693-11.825-0.185-24.425 0.062-28 0.547z" />
<glyph unicode="&#xe941;" horiz-adv-x="1252" d="M778.5-45.369c-96.191 7.54-182.334 41.42-252.364 99.255-15.549 12.841-39.567 36.754-52.345 52.114-44.266 53.213-72.54 115.249-81.355 178.5-1.359 9.75-1.53 15.562-0.916 31 1.229 30.869 1.208 32.016-0.59 31.891-0.863-0.060-56.22-44.849-123.014-99.532s-124.901-101.578-129.126-104.211c-31.675-19.742-70.319-21.836-95.448-5.171-11.4 7.561-20.116 19.264-24.967 33.523-2.575 7.571-2.651 29.694-0.133 38.802 4.847 17.527 13.468 32.010 27.214 45.715 6.48 6.46 40.652 33.246 120.543 94.486 200.581 153.754 318.378 244.183 325.304 249.726 3.742 2.995 6.63 5.969 6.417 6.608-0.291 0.873-32.838 1.292-130.304 1.678-120.353 0.477-130.359 0.645-135.917 2.282-28.719 8.455-44.28 29.112-40.585 53.875 1.715 11.493 8.299 23.906 17.875 33.703 11.785 12.057 23.934 19.222 42.209 24.898l8.5 2.64 152.5 0.663c83.875 0.365 197.194 0.722 251.82 0.794l99.32 0.13-0.32 2.177c-0.221 1.506-24.521 21.867-78.82 66.044-43.175 35.127-80.661 65.984-83.302 68.573s-6.241 7.624-8 11.191c-2.953 5.987-3.198 7.252-3.198 16.5 0 9.22 0.257 10.559 3.242 16.861 6.076 12.828 20.324 24.395 37.064 30.088 21.998 7.482 48.229 5.636 66.447-4.677 5.030-2.847 372.444-284.36 396.202-303.57 62.625-50.637 107.358-116.352 128.563-188.87 18.157-62.093 19.454-125.5 3.843-187.817-22.649-90.409-80.956-171.058-163.629-226.328-58.139-38.868-125.020-62.999-198.731-71.704-13.363-1.578-71.175-2.842-84-1.837zM850.561 137.37c33.573 5.098 62.013 14.090 89.329 28.244 44.296 22.952 81.797 58.699 104.787 99.886 18.829 33.731 27.743 67.963 27.735 106.5-0.010 22.363-1.608 35.253-6.912 55.59-22.696 87.024-98.433 155.586-194.206 175.807-37.354 7.887-79.12 8.065-116.295 0.496-73.28-14.92-136.472-58.239-172.705-118.394-11.59-19.243-19.348-37.678-24.79-58.91-5.043-19.678-6.847-34.189-6.847-55.090 0-35.156 6.679-63.902 22.304-96 21.142-43.429 56.583-80.135 102.648-106.313 29.446-16.733 68.733-28.96 106.389-33.109 12.452-1.372 56.479-0.542 68.561 1.293zM799.768 231.112c-40.392 3.896-76.701 20.719-104.322 48.335-28.677 28.672-42.722 61.824-42.598 100.552 0.068 21.269 4.019 39.189 12.773 57.921 31.014 66.368 110.154 102.945 188.379 87.065 14.463-2.936 27.080-7.388 42.5-14.997 43.885-21.654 75.024-61.757 83.073-106.99 2.241-12.596 2.254-34.447 0.027-47-8.167-46.034-41.144-87.47-86.635-108.856-28.517-13.406-61.532-19.085-93.196-16.031z" />
<glyph unicode="&#xe942;" horiz-adv-x="1252" d="M786-45.312c-58.012 2.701-121.518 19.086-174.084 44.917-46.968 23.080-83.815 49.736-118.735 85.895-49.071 50.813-83.577 114.253-96.548 177.504-5.73 27.943-6.601 42.187-4.125 67.496 1.886 19.285 1.994 17.804-1.258 17.305-1.817-0.279-43.952-34.151-124.25-99.885-66.825-54.705-124.2-101.162-127.5-103.239-8.883-5.591-19.29-10.328-29.201-13.292-12.675-3.791-33.399-4.517-45.022-1.578-26.45 6.689-43.712 24.853-48.094 50.606-3.365 19.78 2.515 41.301 17.013 62.274 7.759 11.224 18.456 20.576 59.338 51.877 20.881 15.987 102.090 78.293 180.465 138.457s160.050 122.824 181.5 139.246c21.45 16.421 39.996 30.959 41.214 32.306 1.312 1.452 1.961 3.108 1.594 4.065-0.567 1.478-11.511 1.584-128.714 1.251-143.895-0.409-135.22-0.812-151.125 7.028-26.352 12.99-34.746 39.729-20.802 66.264 9.973 18.979 31.375 34.207 58.333 41.505 6.098 1.651 22.005 1.792 257 2.285l250.5 0.525 0.308 2.162c0.254 1.786-13.596 13.479-79.5 67.119-43.894 35.726-81.976 67.279-84.627 70.118-7.415 7.942-10.060 14.646-10.101 25.6-0.031 8.218 0.261 9.609 3.351 16 3.991 8.255 14.413 19.149 23.308 24.365 22.817 13.38 55.943 14.395 77.933 2.387 3.78-2.064 64.35-47.92 134.6-101.903s156.303-120.095 191.228-146.917c34.925-26.822 67.924-52.344 73.332-56.715 70.945-57.353 119.47-136.721 135.557-221.717 4.776-25.233 5.533-34.267 5.573-66.5 0.039-31.507-0.399-37.419-4.562-61.5-12.27-70.986-48.134-140.073-100.9-194.367-35.276-36.298-71.742-62.774-117.5-85.312-68.771-33.873-145.329-49.365-225.5-45.633zM830 135.025c66.99 4.646 126.56 30.453 171.872 74.459 65.667 63.774 87.619 151.509 58.928 235.515-7.959 23.304-23.747 51.154-40.145 70.814-9.228 11.064-29.532 30.395-40.994 39.029-61.002 45.953-140.746 64.473-218.162 50.666-83.726-14.932-153.805-65.497-188.498-136.009-14.542-29.557-21.543-57.482-22.702-90.556-1.293-36.882 5.848-70.262 22.13-103.444 12.011-24.478 25.903-43.856 45.55-63.539 54.007-54.106 132.18-82.472 212.020-76.935zM799.768 231.112c-40.392 3.896-76.701 20.719-104.322 48.335-28.677 28.672-42.722 61.824-42.598 100.552 0.068 21.269 4.019 39.189 12.773 57.921 31.014 66.368 110.154 102.945 188.379 87.065 14.463-2.936 27.080-7.388 42.5-14.997 43.885-21.654 75.024-61.757 83.073-106.99 2.241-12.596 2.254-34.447 0.027-47-8.167-46.034-41.144-87.47-86.635-108.856-28.517-13.406-61.532-19.085-93.196-16.031z" />
<glyph unicode="&#xe943;" horiz-adv-x="1252" d="M799.768 231.112c-40.392 3.896-76.701 20.719-104.322 48.335-28.677 28.672-42.722 61.824-42.598 100.552 0.068 21.269 4.019 39.189 12.773 57.921 31.014 66.368 110.154 102.945 188.379 87.065 14.463-2.936 27.080-7.388 42.5-14.997 43.885-21.654 75.024-61.757 83.073-106.99 2.241-12.596 2.254-34.447 0.027-47-8.167-46.034-41.144-87.47-86.635-108.856-28.517-13.406-61.532-19.085-93.196-16.031z" />
<glyph unicode="&#xe944;" horiz-adv-x="1252" d="M798.5 232.028c-29.594 3.356-59.695 14.571-82.5 30.738-12.008 8.513-28.618 25.069-36.854 36.735-11.568 16.386-20.304 37.237-23.825 56.864-2.193 12.225-2.163 34.206 0.063 46.636 11.749 65.608 69.707 115.9 142.826 123.933 76.952 8.454 150.876-34.819 174.667-102.245 5.549-15.728 7.446-27.235 7.446-45.188 0-17.928-1.886-29.399-7.43-45.188-17.983-51.217-66.623-90.367-124.716-100.384-13.426-2.315-37.8-3.247-49.678-1.9z" />
<glyph unicode="&#xe945;" d="M491.683-5.857c-4.023 1.94-7.314 5.498-7.314 7.907 0 4.452-3.527 5.601-13.912 4.533-8.065-0.829-28.349 6.219-28.349 9.851 0 1.649-3.501 2.999-7.779 2.999s-8.554 2.018-9.5 4.485c-2.177 5.673-29.209 15.020-43.439 15.020-5.939 0-10.799 1.463-10.799 3.251s-2.926 3.251-6.502 3.251c-3.576 0-6.502 1.443-6.502 3.207 0 4.76-21.932 13.047-34.53 13.047-6.853 0-10.981 1.591-10.981 4.234 0 5.65-47.29 23.483-59.013 22.253-6.023-0.632-9.253 0.54-9.253 3.357 0 2.38-4.696 6.406-10.436 8.947-17.434 7.717-30.202 23.446-39.903 49.158-5.023 13.312-11.775 26.758-15.006 29.88s-6.897 11.131-8.148 17.798c-1.251 6.667-4.244 14.092-6.651 16.499s-4.377 10.124-4.377 17.148c0 8.706-1.431 12.771-4.497 12.771-4.711 0-8.386 9.532-8.462 21.943-0.024 4.023-1.337 7.314-2.916 7.314s-3.661 2.56-4.626 5.689c-0.965 3.129-6.987 19.419-13.382 36.201s-11.628 33.343-11.628 36.804c0 3.46-2.194 8.486-4.876 11.168s-4.896 8.795-4.921 13.584c-0.069 13.573-3.548 23.336-8.314 23.336-2.461 0-5.323 5.294-6.591 12.19-1.233 6.705-3.653 13.107-5.377 14.227s-3.912 8.924-4.861 17.343c-0.964 8.551-3.677 16.056-6.148 17.004-2.432 0.933-4.422 4.466-4.422 7.851s-1.373 6.154-3.052 6.154c-1.678 0-4.087 6.901-5.351 15.336s-4.28 17.316-6.701 19.737c-2.421 2.421-4.401 7.954-4.401 12.296s-1.463 7.895-3.251 7.895c-1.788 0-3.251 3.030-3.251 6.734s-2.326 9.059-5.168 11.902c-3.162 3.162-4.642 8.751-3.814 14.396 0.959 6.536-0.028 9.228-3.384 9.228-3.6 0-4.295 2.734-2.892 11.378 1.393 8.582 0.698 11.378-2.825 11.378-2.816 0-4.672 3.228-4.672 8.127 0 4.47 1.371 8.127 3.046 8.127s2.249 4.916 1.274 10.924c-1.332 8.206-0.182 12.452 4.622 17.067 3.517 3.379 7.278 9.8 8.358 14.27 1.446 5.987 7.13 10.554 21.588 17.342 11.101 5.212 19.626 11.32 19.626 14.061 0 3.262 2.922 4.653 8.94 4.256 14.243-0.939 17.067-0.186 17.067 4.553 0 2.816 5.079 5.053 13.816 6.085 7.599 0.897 21.862 5.248 31.695 9.668s22.634 9.905 28.444 12.189c5.811 2.284 10.576 5.804 10.59 7.822 0.033 4.795 15.272 11.784 25.816 11.84 13.327 0.071 22.92 3.618 22.92 8.474 0 2.598 6.202 6.168 14.629 8.422 8.046 2.152 14.629 5.072 14.629 6.489s3.657 2.577 8.127 2.577c4.47 0 8.127 1.463 8.127 3.251s4.737 3.251 10.526 3.251c13.336 0 67.493 22.72 67.493 28.315 0 2.306 3.657 4.193 8.127 4.193s8.127 1.463 8.127 3.251c0 1.788 4.269 3.251 9.486 3.251 12.767 0 19.771 3.002 19.771 8.475 0 3.116 4.056 4.528 13.003 4.528 9.391 0 13.003 1.354 13.003 4.876 0 3.205 3.207 4.876 9.355 4.876 5.145 0 14.71 2.237 21.254 4.972s25.374 6.379 41.845 8.099c16.47 1.72 41.649 4.643 55.952 6.496 35.776 4.633 106.39 12.801 111.34 12.878 2.235 0.035 4.063 2.258 4.063 4.94 0 3.522 3.612 4.876 13.003 4.876 7.152 0 13.003-1.463 13.003-3.251s5.317-3.251 11.816-3.251c16.633 0 53.2 7.090 53.2 10.314 0 1.479 5.851 2.689 13.003 2.689s13.003-1.28 13.003-2.845c0-1.565 8.777-4.792 19.505-7.172 11.558-2.564 19.505-6.041 19.505-8.533 0-2.313 2.299-4.206 5.108-4.206 7.171 0 14.396-8.041 14.396-16.022 0-3.704 2.835-9.569 6.301-13.034 4.084-4.084 6.264-10.66 6.196-18.692-0.123-14.639 5.324-30.271 10.547-30.271 2.262 0 3.144-3.79 2.269-9.752-0.988-6.73-0.070-9.752 2.96-9.752 3.001 0 4.225-3.86 3.866-12.19-0.649-15.041 12.148-62.996 18.017-67.518 4.749-3.659 18.815-51.48 17.573-59.746-1.181-7.863 3.485-23.085 7.077-23.085 1.741 0 2.928-6.056 2.638-13.457-0.359-9.156 1.167-14.696 4.774-17.333 2.916-2.132 6.311-10.339 7.546-18.238s3.757-15.348 5.606-16.553c1.849-1.205 3.697-10.642 4.107-20.972 0.505-12.718 2.409-19.998 5.897-22.549 2.834-2.072 5.152-8.36 5.152-13.974s1.463-10.207 3.251-10.207c1.788 0 3.251-6.478 3.251-14.396 0-8.754 2.002-16.399 5.109-19.505 2.81-2.81 4.723-8.4 4.252-12.423-1.387-11.834 7.089-41.447 11.863-41.447 4.844 0 10.611-25.488 11.034-48.762 0.146-8.046 1.725-15.116 3.509-15.712 4.878-1.63 3.912-16.796-1.070-16.796-2.943 0-3.859-3.097-2.882-9.752 1.086-7.398 0.165-9.752-3.814-9.752-3.478 0-5.245-2.84-5.245-8.431 0-5.561-2.111-8.983-6.201-10.053-3.411-0.892-6.931-4.412-7.823-7.823-0.955-3.651-4.467-6.201-8.542-6.201-8.906 0-22.946-9.179-22.946-15.002 0-2.642-3.377-4.502-8.173-4.502-9.606 0-30.739-12.827-30.797-18.692-0.022-2.235-3.046-4.064-6.719-4.064s-22.265-9.509-41.315-21.13c-19.050-11.622-37.987-21.13-42.083-21.13-7.223 0-10.044-1.816-28.355-18.249-4.754-4.267-10.558-7.758-12.898-7.758s-8.2-3.657-13.023-8.127c-4.823-4.47-11.607-8.127-15.076-8.127s-8.134-2.926-10.367-6.502c-2.233-3.576-6.487-6.502-9.453-6.502s-13.001-5.12-22.3-11.378c-9.299-6.258-18.223-11.378-19.831-11.378s-2.924-2.011-2.924-4.47c0-2.458-4.198-5.31-9.33-6.336-5.715-1.143-10.005-4.449-11.073-8.533-1.094-4.183-4.418-6.667-8.922-6.667-7.953 0-33.698-12.952-53.245-26.786-6.973-4.935-15.384-8.973-18.692-8.973-3.716 0-6.014-2.332-6.014-6.104 0-3.357-1.829-7.489-4.064-9.183-6.722-5.094-29.949-10.72-44.263-10.72-7.391 0-13.439-1.463-13.439-3.251 0-4.211-12.577-3.8-21.943 0.717z" />
<glyph unicode="&#xe946;" d="M489.244 10.223c-3.576 1.978-9.427 6.232-13.003 9.453s-42.342 18.994-86.146 35.049c-162.381 59.518-166.892 61.559-176.221 79.728-21.081 41.057-170.882 440.548-174.048 464.151-2.261 16.861 0.618 23.426 8.439 19.24 3.356-1.796 33.732-5.696 67.502-8.667s76.827-8.552 95.68-12.402l34.279-7.001 7.456 16.895c13.545 30.693 20.244 28.788-101.261 28.788-58.528 0-106.414 0.438-106.413 0.974s2.307 5.432 5.125 10.881c6.136 11.866 6.775 12.169 159.042 75.213 62.578 25.909 147.424 61.297 188.546 78.638s82.814 32.831 92.648 34.422c30.224 4.889 216.95 25.855 261.538 29.366 35.782 2.817 44.086 2.56 55.264-1.712 15.346-5.865 28.946-17.643 35.899-31.088 4.611-8.917 4.502-9.75-1.718-13.079-3.654-1.956-9.514-2.644-13.022-1.531-5.34 1.695-6.379 0.485-6.379-7.43 0-5.2 2.374-16.636 5.275-25.413 3.691-11.166 5.411-29.137 5.728-59.844 0.249-24.137 1.556-45.613 2.905-47.725s0.965-4.758-0.852-5.881c-5.486-3.391-3.717-10.544 3.045-12.313 5.648-1.477 5.959-2.865 2.815-12.57-1.944-6-4.936-13.665-6.649-17.034-2.216-4.358-1.856-6.922 1.248-8.89 7.106-4.504 12.033-3.292 15.885 3.906 3.457 6.459 3.912 6.51 9.867 1.122 3.434-3.107 6.243-7.178 6.243-9.047 0-2.082-1.51-1.887-3.901 0.504-6.451 6.451-12.353 4.432-12.353-4.226 0-9.627 7.721-10.813 18.992-2.919 4.089 2.864 7.799 4.693 8.243 4.064 0.89-1.26 29.998-91.888 35.345-110.046 13.512-45.89 28.882-81.841 24.168-56.532-4.88 26.204-6.183 45.056-2.896 41.903 4.163-3.992 49.575-150.878 51.819-167.608 1.939-14.456-3.196-30.973-13.077-42.068-8.937-10.034-25.723-20.808-140.473-90.155-50.062-30.254-125.399-75.963-167.416-101.575-105.281-64.176-107.296-65.343-121.501-70.373-6.93-2.454-18.912-4.462-26.627-4.462s-14.932-1.463-16.037-3.251c-2.517-4.073-4.832-3.976-13.003 0.543zM521.012 48.926c15.334 12.64 15.315 16.769-0.072 15.842-6.705-0.404-18.503-0.529-26.217-0.28l-14.027 0.454-12.959 28.444c-7.128 15.644-15.046 32.833-17.596 38.197l-4.637 9.752 2.008-9.752c4.775-23.195 25.898-81.028 30.355-83.109 6.763-3.158 23.692-8.775 27.704-9.193 1.828-0.19 8.776 4.149 15.441 9.643zM563.2 47.56c4.917 2.501 8.94 5.159 8.94 5.907 0 1.489-29.881-11.131-32.508-13.729-2.619-2.591 13.833 2.87 23.568 7.822zM308.924 143.99c97.964 57.476 104.364 59.833 117.671 43.325 5.569-6.909 5.617-6.867 5.689 4.933 0.078 12.9 6.221 19.671 31.966 35.235 7.393 4.47 13.482 9.224 13.53 10.565 0.155 4.323-25.234 2.594-41.125-2.802-10.741-3.647-15.8-4.141-16.638-1.625-2.784 8.353-6.916 2.688-6.255-8.576 0.679-11.573 0.251-12.141-8.447-11.22-6.457 0.684-25.877-7.733-65.767-28.503-74.663-38.877-87.391-46.561-88.742-53.575-1.207-6.269 4.432-11.409 12.608-11.49 2.736-0.026 23.216 10.653 45.511 23.733zM225.93 149.464c1.105 1.788 0.46 3.251-1.434 3.251s-3.443-1.463-3.443-3.251c0-1.788 0.645-3.251 1.434-3.251s2.338 1.463 3.443 3.251zM971.401 304.69c0.571 4.023-0.16 7.323-1.625 7.333s-11.441 1.467-22.169 3.237c-10.728 1.77-31.939 4.709-47.137 6.533s-39.168 5.741-53.268 8.707c-24.659 5.187-25.805 5.161-30.070-0.671-7.967-10.895-5.249-14.008 14.258-16.332 10.281-1.224 38.441-5.639 62.578-9.811s51.2-7.298 60.14-6.947c14.15 0.555 16.388 1.584 17.293 7.952zM99.483 483.469c-2.791 8.501-8.702 30.816-13.136 49.589s-10.812 42.179-14.173 52.013c-5.143 15.046-7.483 18.042-14.762 18.908-6.784 0.807-8.65-0.351-8.65-5.368 0-6.902 22.131-65.762 41.459-110.262 12.454-28.675 18.041-31.619 9.263-4.881zM858.21 580.194c0 2.682-0.575 4.876-1.278 4.876s-2.12-2.194-3.149-4.876c-1.029-2.682-0.454-4.876 1.278-4.876s3.149 2.194 3.149 4.876zM481.617 692.347c11.136 0 15.755 1.299 15.755 4.432 0 2.438 9.143 8.381 20.317 13.207s25.437 11.709 31.695 15.294c6.258 3.586 26.738 13.922 45.511 22.97 175.425 84.55 196.823 96.262 184.504 100.989-6.613 2.538-24.192-4.226-147.12-56.606-163.955-69.862-225.93-97.65-225.93-101.302 0-2.033 10.911-2.436 29.757-1.098 16.366 1.162 36.846 2.112 45.511 2.112zM565.638 697.096c0 4.685-12.154 18.006-16.429 18.006-1.21 0-6.343-3.291-11.407-7.314s-12.941-9.024-17.505-11.114c-7.162-3.279-4.626-3.836 18.521-4.064 21.475-0.211 26.819 0.682 26.819 4.486z" />
</font>
</defs>
</svg>
